<svg xmlns="http://www.w3.org/2000/svg" width="154.641" height="59.158" viewBox="0 0 154.641 59.158">
  <g id="Group_218" data-name="Group 218" transform="translate(-44.914 -32.864)">
    <g id="Group_215" data-name="Group 215" transform="translate(100.108 32.864)">
      <path id="Path_265" data-name="Path 265" d="M121.366,42.811h6.879l-1.478,8.06h3.108l3.2-17.315h-3.132l-1.23,6.678h-6.879l1.229-6.678h-3.12l-3.18,17.315h3.12Z" transform="translate(-116.769 -33.025)" fill="#ffd400"/>
      <path id="Path_266" data-name="Path 266" d="M157.279,52.514l8.155-12.895h-3.427l-4.456,7.671-2.127-7.671h-3.085l3.877,12.895Z" transform="translate(-125.017 -34.43)" fill="#ffd400"/>
      <path id="Path_267" data-name="Path 267" d="M140.791,52.206l1.336-7.151a4.479,4.479,0,0,1,1.194-2.281,2.866,2.866,0,0,1,2.1-1,3.28,3.28,0,0,1,1.855.78l.886-3.013a11.748,11.748,0,0,0-1.737-.225,5.248,5.248,0,0,0-3.475,1.337l.2-1.1h-2.967l-2.364,12.659Z" transform="translate(-121.651 -34.359)" fill="#ffd400"/>
      <path id="Path_268" data-name="Path 268" d="M179.362,47.667l1.466-7.765a13.017,13.017,0,0,0-4.621-.591,6.92,6.92,0,0,0-5.507,2.577,9.219,9.219,0,0,0-2.175,6.17,4.441,4.441,0,0,0,1.123,3.227,4.264,4.264,0,0,0,3.191,1.158,5.143,5.143,0,0,0,3.771-1.5q.4,1.265,1.229,1.265h1.844a10.651,10.651,0,0,1-.4-3.569A5.218,5.218,0,0,1,179.362,47.667Zm-3.534.792a2.666,2.666,0,0,1-2.221,1.572,1.792,1.792,0,0,1-2.009-2.044,8.048,8.048,0,0,1,1.182-4.361,3.591,3.591,0,0,1,3.167-1.9,5.917,5.917,0,0,1,1.584.237Q176.786,46.888,175.828,48.459Z" transform="translate(-128.769 -34.359)" fill="#ffd400"/>
      <path id="Path_269" data-name="Path 269" d="M225.417,39.081,223.349,37.3a21.136,21.136,0,0,1-3.026,3.026l-2.234,1.938,1.525-9.4h-2.907l-3.1,17.847h2.967l.839-4.8.5-.414,4.007,5.213h3.5l-5.224-6.843Q224.9,39.719,225.417,39.081Z" transform="translate(-139.224 -32.864)" fill="#ffd400"/>
      <path id="Path_270" data-name="Path 270" d="M192.59,40.842h3.487l.508-2.376h-3.463l.886-3.818-3.381,1.229-.5,2.589h-1.466l-.508,2.376h1.466l-1.43,6.347a4.152,4.152,0,0,0-.106.934,3.211,3.211,0,0,0,.874,2.34,3.087,3.087,0,0,0,2.317.9,11.083,11.083,0,0,0,3.474-.438V48.265a6.515,6.515,0,0,1-2.128.615q-1.466,0-1.466-1.3a5.2,5.2,0,0,1,.154-1.122Z" transform="translate(-133.306 -33.278)" fill="#ffd400"/>
      <path id="Path_271" data-name="Path 271" d="M204.294,42.112a2.347,2.347,0,0,1,1.277-.343,4.141,4.141,0,0,1,2.6,1.241l1.371-2.706a10.341,10.341,0,0,0-3.806-.993,5.89,5.89,0,0,0-3.616,1.1,3.46,3.46,0,0,0-1.466,2.93,2.832,2.832,0,0,0,.438,1.537,3.691,3.691,0,0,0,1.3,1.17q.85.474,1.961,1.052t1.111,1.217a1.451,1.451,0,0,1-.591,1.217,2.346,2.346,0,0,1-1.478.449,4.309,4.309,0,0,1-2.9-1.395l-1.56,2.683a7.923,7.923,0,0,0,4.066,1.171,6.344,6.344,0,0,0,4-1.206,3.931,3.931,0,0,0,1.571-3.3,2.628,2.628,0,0,0-.436-1.5,3.167,3.167,0,0,0-1.123-1.04q-.687-.391-1.974-1.04t-1.277-1.348A1.015,1.015,0,0,1,204.294,42.112Z" transform="translate(-135.822 -34.359)" fill="#ffd400"/>
      <path id="Union_5" data-name="Union 5" d="M10.838,8.356,12.3.591A13.019,13.019,0,0,0,7.683,0,6.924,6.924,0,0,0,2.175,2.577,9.226,9.226,0,0,0,0,8.747a4.441,4.441,0,0,0,1.123,3.227,4.266,4.266,0,0,0,3.192,1.158,5.142,5.142,0,0,0,3.77-1.5q.4,1.265,1.229,1.265h1.844a10.63,10.63,0,0,1-.4-3.569A5.218,5.218,0,0,1,10.838,8.356ZM7.3,9.148A2.665,2.665,0,0,1,5.082,10.72,1.792,1.792,0,0,1,3.073,8.676,8.048,8.048,0,0,1,4.255,4.315a3.59,3.59,0,0,1,3.167-1.9,5.922,5.922,0,0,1,1.584.237Q8.262,7.577,7.3,9.148Z" transform="translate(87.143 4.952)" fill="#ffd400"/>
    </g>
    <g id="Group_216" data-name="Group 216" transform="translate(137.477 56.189)">
      <path id="Union_6" data-name="Union 6" d="M11.209,1.282A5.238,5.238,0,0,0,7.421,0,6.8,6.8,0,0,0,2.1,2.374,8.466,8.466,0,0,0,0,8.192a4.926,4.926,0,0,0,1.342,3.716A5.209,5.209,0,0,0,5.094,13.19,6.787,6.787,0,0,0,10.46,10.8a8.67,8.67,0,0,0,2.078-5.9A4.771,4.771,0,0,0,11.209,1.282ZM8.359,9.059a3.319,3.319,0,0,1-2.933,1.71q-2.339,0-2.339-2.718A7.067,7.067,0,0,1,4.179,4.119,3.352,3.352,0,0,1,7.1,2.421q2.338,0,2.338,2.565A7.505,7.505,0,0,1,8.359,9.059Z" transform="translate(15.561 4.677)" fill="#ffd400"/>
      <path id="Union_7" data-name="Union 7" d="M8.986,0A5.5,5.5,0,0,0,5.708,1.223,6.146,6.146,0,0,0,5.435.012l-2.9.522a10.6,10.6,0,0,1,.214,2.1,8.272,8.272,0,0,1-.143,1.532L0,18.068,3.138,16.9l.826-4.292a5.433,5.433,0,0,0,2.5.581,7.081,7.081,0,0,0,5.521-2.315,8.521,8.521,0,0,0,2.089-5.937Q14.078,0,8.986,0Zm.736,9.272a4.49,4.49,0,0,1-3.574,1.413,2.279,2.279,0,0,1-1.721-.605L5.613,3.8a3.554,3.554,0,0,1,1.175-.843,3.221,3.221,0,0,1,1.377-.392A2.8,2.8,0,0,1,10.22,3.3a2.569,2.569,0,0,1,.748,1.935A5.936,5.936,0,0,1,9.721,9.272Z" transform="translate(0 4.677)" fill="#ffd400"/>
      <path id="Union_8" data-name="Union 8" d="M10.887,8.393,12.36.594A13.085,13.085,0,0,0,7.718,0,6.949,6.949,0,0,0,2.185,2.588,9.264,9.264,0,0,0,0,8.786a4.46,4.46,0,0,0,1.128,3.241A4.279,4.279,0,0,0,4.334,13.19a5.161,5.161,0,0,0,3.787-1.508q.4,1.27,1.235,1.27h1.853a10.667,10.667,0,0,1-.4-3.586A5.269,5.269,0,0,1,10.887,8.393Zm-3.55.8a2.68,2.68,0,0,1-2.232,1.579A1.8,1.8,0,0,1,3.087,8.714,8.092,8.092,0,0,1,4.275,4.333,3.607,3.607,0,0,1,7.456,2.421a5.919,5.919,0,0,1,1.592.238Q8.3,7.61,7.338,9.189Z" transform="translate(49.709 4.677)" fill="#ffd400"/>
      <path id="Path_276" data-name="Path 276" d="M205.385,70.423a3.478,3.478,0,0,0-1.472,2.945,2.85,2.85,0,0,0,.439,1.543,3.718,3.718,0,0,0,1.307,1.175q.855.476,1.971,1.056t1.115,1.224a1.454,1.454,0,0,1-.593,1.223,2.357,2.357,0,0,1-1.485.451,4.328,4.328,0,0,1-2.909-1.4l-1.567,2.7a7.954,7.954,0,0,0,4.084,1.175,6.376,6.376,0,0,0,4.013-1.211,3.948,3.948,0,0,0,1.579-3.312,2.634,2.634,0,0,0-.439-1.508,3.16,3.16,0,0,0-1.128-1.045q-.689-.393-1.983-1.045t-1.282-1.353a1.018,1.018,0,0,1,.534-.9,2.354,2.354,0,0,1,1.283-.345,4.159,4.159,0,0,1,2.612,1.247l1.377-2.718a10.391,10.391,0,0,0-3.823-1A5.911,5.911,0,0,0,205.385,70.423Z" transform="translate(-173.945 -64.642)" fill="#ffd400"/>
      <path id="Path_277" data-name="Path 277" d="M224.5,64.635l-3.4,1.234-.5,2.6h-1.472l-.511,2.387h1.473l-1.436,6.375a4.148,4.148,0,0,0-.108.938,3.229,3.229,0,0,0,.88,2.351,3.1,3.1,0,0,0,2.327.9,11.153,11.153,0,0,0,3.49-.439V78.312a6.533,6.533,0,0,1-2.137.618q-1.472,0-1.472-1.306a5.248,5.248,0,0,1,.154-1.128l1.283-5.64h3.5l.511-2.387h-3.479Z" transform="translate(-177.739 -63.556)" fill="#ffd400"/>
      <path id="Path_278" data-name="Path 278" d="M210.757,64.785,209,63.23h-1.927l1.864,3.316h2.9l3.192-3.316h-1.886Z" transform="translate(-175.077 -63.23)" fill="#ffd400"/>
    </g>
    <path id="Path_279" data-name="Path 279" d="M124.39,62.5a.6.6,0,0,0-.561.539A24.179,24.179,0,1,1,96.77,34.765a.591.591,0,0,0,.541-.606.606.606,0,0,0-.608-.605c-.565-.01-.792-.01-1.366-.014l-50.423,0L69.8,76.745a29.323,29.323,0,0,0,55.148-13.711A.568.568,0,0,0,124.39,62.5Z" transform="translate(0 -0.157)" fill="#ffd400"/>
  </g>
</svg>
