<svg xmlns="http://www.w3.org/2000/svg" width="500" height="83" viewBox="0 0 500 83" fill="none"><path d="M14.5644 70.1567H38.4915V81.7041H0V9.09033H14.5644V70.1567Z" fill="#262E37"></path><path d="M104.238 24.0708V81.7041H89.5693V74.4219C87.6967 76.9187 85.2346 78.8953 82.183 80.3517C79.2008 81.7388 75.9412 82.4323 72.4041 82.4323C67.8961 82.4323 63.9082 81.4961 60.4405 79.6235C56.9728 77.6816 54.2333 74.8727 52.222 71.197C50.2801 67.4518 49.3092 63.0132 49.3092 57.881V24.0708H63.8735V55.8003C63.8735 60.3777 65.0179 63.9148 67.3066 66.4115C69.5953 68.8389 72.7162 70.0526 76.6694 70.0526C80.6919 70.0526 83.8475 68.8389 86.1362 66.4115C88.4249 63.9148 89.5693 60.3777 89.5693 55.8003V24.0708H104.238Z" fill="#262E37"></path><path d="M192.262 23.2386C199.336 23.2386 205.023 25.4232 209.323 29.7925C213.692 34.0925 215.877 40.1263 215.877 47.894V81.7041H201.313V49.8706C201.313 45.3625 200.168 41.9295 197.88 39.5715C195.591 37.1441 192.47 35.9304 188.517 35.9304C184.564 35.9304 181.408 37.1441 179.05 39.5715C176.761 41.9295 175.617 45.3625 175.617 49.8706V81.7041H161.053V49.8706C161.053 45.3625 159.908 41.9295 157.619 39.5715C155.331 37.1441 152.21 35.9304 148.257 35.9304C144.234 35.9304 141.044 37.1441 138.686 39.5715C136.397 41.9295 135.253 45.3625 135.253 49.8706V81.7041H120.688V24.0708H135.253V31.0409C137.125 28.6135 139.518 26.7063 142.431 25.3192C145.413 23.9321 148.673 23.2386 152.21 23.2386C156.718 23.2386 160.74 24.2095 164.277 26.1514C167.815 28.024 170.554 30.7288 172.496 34.2659C174.368 30.9369 177.073 28.2668 180.61 26.2555C184.217 24.2442 188.101 23.2386 192.262 23.2386Z" fill="#262E37"></path><path d="M294.753 23.2386C301.619 23.2386 307.167 25.4232 311.398 29.7926C315.628 34.0925 317.744 40.1263 317.744 47.894V81.7041H315.519H303.179V69.9126V49.8706C303.179 45.2932 302.035 41.7908 299.746 39.3634C297.458 36.8667 294.337 35.6183 290.384 35.6183C286.361 35.6183 283.171 36.8667 280.813 39.3634C279.291 40.9773 278.275 43.0663 277.765 45.6305C277.508 46.9231 277.38 48.3365 277.38 49.8706V81.7041H262.815V31.3403V24.0708H277.38V31.249C279.322 28.7522 281.784 26.8103 284.766 25.4232C287.817 23.9668 291.146 23.2386 294.753 23.2386Z" fill="#262E37"></path><path d="M311.398 29.7926C307.167 25.4232 301.619 23.2386 294.753 23.2386C291.146 23.2386 287.817 23.9668 284.766 25.4232C281.784 26.8103 279.322 28.7522 277.38 31.249V24.0708H262.815V31.3403L277.765 45.6305C278.275 43.0663 279.291 40.9773 280.813 39.3634C283.171 36.8667 286.361 35.6183 290.384 35.6183C294.337 35.6183 297.458 36.8667 299.746 39.3634C302.035 41.7908 303.179 45.2932 303.179 49.8706V69.9126L315.519 81.7041H317.744V47.894C317.744 40.1263 315.628 34.0925 311.398 29.7926Z" fill="#308EFE"></path><path d="M388.08 24.0708V81.7041H373.412V74.4219C371.539 76.9187 369.077 78.8953 366.026 80.3517C363.044 81.7388 359.784 82.4324 356.247 82.4324C351.739 82.4324 347.751 81.4961 344.283 79.6235C340.816 77.6816 338.076 74.8727 336.065 71.197C334.123 67.4519 333.152 63.0132 333.152 57.881V24.0708H347.716V55.8004C347.716 60.3777 348.861 63.9148 351.149 66.4115C353.438 68.8389 356.559 70.0526 360.512 70.0526C364.535 70.0526 367.69 68.8389 369.979 66.4115C372.268 63.9148 373.412 60.3777 373.412 55.8004V24.0708H388.08Z" fill="#308EFE"></path><path d="M476.105 23.2386C483.179 23.2386 488.866 25.4232 493.166 29.7926C497.535 34.0925 499.72 40.1263 499.72 47.894V81.7041H485.155V49.8706C485.155 45.3626 484.011 41.9295 481.722 39.5715C479.434 37.1441 476.313 35.9304 472.36 35.9304C468.406 35.9304 465.251 37.1441 462.893 39.5715C460.604 41.9295 459.46 45.3626 459.46 49.8706V81.7041H444.895V49.8706C444.895 45.3626 443.751 41.9295 441.462 39.5715C439.174 37.1441 436.053 35.9304 432.099 35.9304C428.077 35.9304 424.887 37.1441 422.529 39.5715C420.24 41.9295 419.096 45.3626 419.096 49.8706V81.7041H404.531V24.0708H419.096V31.0409C420.968 28.6135 423.361 26.7063 426.274 25.3192C429.256 23.9321 432.516 23.2386 436.053 23.2386C440.561 23.2386 444.583 24.2095 448.12 26.1515C451.657 28.024 454.397 30.7288 456.339 34.2659C458.211 30.9369 460.916 28.2668 464.453 26.2555C468.06 24.2442 471.943 23.2386 476.105 23.2386Z" fill="#308EFE"></path><path d="M246.684 24.8027L250.585 82.436H228.219L232.12 24.8027H246.684Z" fill="#262E37"></path><path d="M248.189 47.0335L231.691 31.1387L231.337 36.3638L248.534 52.1363L248.189 47.0335Z" fill="#308EFE"></path><path d="M249.209 62.1045L230.799 44.3187L230.446 49.5324L249.553 67.1794L249.209 62.1045Z" fill="#308EFE"></path><path d="M250.241 77.3416L229.888 57.7794L229.535 62.991L250.585 82.436L250.241 77.3416Z" fill="#308EFE"></path><path d="M500 3.25098L262.809 7.15215V10.4031L500 14.3043V3.25098Z" fill="url(#paint0_linear_845_927)"></path><path d="M247.464 8.45254C247.464 13.1207 243.679 16.9051 239.011 16.9051C234.343 16.9051 230.559 13.1207 230.559 8.45254C230.559 3.78433 234.343 0 239.011 0C243.679 0 247.464 3.78433 247.464 8.45254Z" fill="#262E37"></path><path d="M244.863 8.45254C244.863 11.6844 242.243 14.3043 239.011 14.3043C235.779 14.3043 233.159 11.6844 233.159 8.45254C233.159 5.2207 235.779 2.60078 239.011 2.60078C242.243 2.60078 244.863 5.2207 244.863 8.45254Z" fill="#308EFE"></path><defs><linearGradient id="paint0_linear_845_927" x1="262.679" y1="8.45253" x2="500" y2="8.45252" gradientUnits="userSpaceOnUse"><stop offset="0.0303125" stop-color="#308EFE"></stop><stop offset="0.78125" stop-color="#308EFE" stop-opacity="0.547857"></stop><stop offset="1" stop-color="#308EFE" stop-opacity="0"></stop></linearGradient></defs></svg>