<svg width="176" height="43" viewBox="0 0 176 43" fill="none" xmlns="http://www.w3.org/2000/svg">
<path d="M63.6254 22.981C62.8453 22.981 62.2132 23.6138 62.2132 24.3944V40.5488C62.2132 41.3294 61.5805 41.9622 60.8009 41.9622H58.0394C57.2593 41.9622 56.6271 41.3294 56.6271 40.5488V10.3077C56.6271 9.52708 57.2593 8.89429 58.0394 8.89429H60.8009C61.5805 8.89429 62.2132 9.52708 62.2132 10.3077V16.3503C62.2132 17.1309 62.8453 17.7637 63.6254 17.7637H70.751C71.5311 17.7637 72.1632 18.3965 72.1632 19.1771V21.5677C72.1632 22.3482 71.5311 22.981 70.751 22.981H63.6254Z" fill="white"/>
<path d="M70.9027 17.7637C71.454 17.7637 71.9545 18.0847 72.1855 18.5857L76.7778 28.5617C77.2831 29.6585 78.8412 29.6574 79.3444 28.5597L83.9172 18.5877C84.1476 18.0856 84.6492 17.7637 85.201 17.7637H88.3193C89.3626 17.7637 90.0455 18.8563 89.5899 19.795L79.2889 41.0012C78.773 42.0637 77.2593 42.0613 76.7467 40.9973L66.5276 19.7911C66.0751 18.8526 66.7585 17.7637 67.7997 17.7637H70.9027Z" fill="white"/>
<path d="M96.9951 0C97.7752 0 98.4073 0.63279 98.4073 1.41337V17.0693C98.4073 18.3409 100.037 19.0333 101.138 18.3987C102.648 17.5282 104.27 17.0929 106.005 17.0929C109.265 17.0929 111.98 18.3103 114.148 20.7451C116.317 23.1632 117.401 26.1777 117.401 29.7884C117.401 33.5151 116.308 36.5958 114.123 39.0306C111.955 41.4488 109.216 42.6579 105.906 42.6579C103.666 42.6579 101.618 41.9678 99.7598 40.5878C99.2265 40.1916 98.4073 40.5469 98.4073 41.2115C98.4073 41.6261 98.0717 41.9622 97.6573 41.9622H94.2335C93.4539 41.9622 92.8213 41.3294 92.8213 40.5488V1.41337C92.8213 0.632785 93.4539 0 94.2335 0H96.9951ZM111.69 30.0369C111.69 27.7181 111.061 25.8299 109.803 24.3723C108.529 22.8817 106.931 22.1363 105.012 22.1363C102.959 22.1363 101.287 22.8568 99.9966 24.2978C98.7218 25.7222 98.0849 27.5773 98.0849 29.863C98.0849 32.2149 98.7139 34.0948 99.9718 35.5027C101.23 36.9436 102.884 37.6641 104.937 37.6641C106.874 37.6641 108.479 36.9436 109.754 35.5027C111.044 34.0451 111.69 32.2232 111.69 30.0369Z" fill="white"/>
<path d="M140.271 29.8629C140.258 30.5942 139.661 31.1797 138.931 31.1797H124.439C123.618 31.1797 122.955 31.8843 123.142 32.6849C123.446 33.983 124.017 35.063 124.854 35.925C125.995 37.0844 127.46 37.6641 129.248 37.6641C130.639 37.6641 131.789 37.3328 132.699 36.6703C133.395 36.1546 134.166 35.2976 135.012 34.0994C135.443 33.4886 136.262 33.2777 136.915 33.6421L139.21 34.9231C139.901 35.3093 140.145 36.1925 139.702 36.8495C139.206 37.5849 138.692 38.2457 138.161 38.8318C137.35 39.7096 136.481 40.4384 135.554 41.0181C134.627 41.5812 133.626 41.9953 132.55 42.2603C131.474 42.5253 130.307 42.6578 129.049 42.6578C125.441 42.6578 122.545 41.4984 120.36 39.1796C118.175 36.8442 117.083 33.747 117.083 29.8878C117.083 26.0617 118.142 22.9645 120.26 20.596C122.396 18.2606 125.226 17.0929 128.752 17.0929C132.31 17.0929 135.124 18.2275 137.193 20.4966C139.245 22.7491 140.271 25.8713 140.271 29.8629ZM132.683 26.6083C133.608 26.6083 134.297 25.7186 133.862 24.9018C132.881 23.0582 131.218 22.1363 128.875 22.1363C128.197 22.1363 127.56 22.244 126.964 22.4593C126.368 22.6581 125.822 22.9562 125.325 23.3537C124.845 23.7346 124.431 24.1984 124.084 24.745C124.048 24.8018 124.012 24.8595 123.978 24.918C123.509 25.7162 124.194 26.6083 125.119 26.6083H132.683Z" fill="white"/>
<path d="M159.12 18.571C159.12 18.1252 159.481 17.7637 159.927 17.7637H163.319C164.099 17.7637 164.731 18.3965 164.731 19.1771V40.5488C164.731 41.3294 164.099 41.9622 163.319 41.9622H159.887C159.463 41.9622 159.12 41.6188 159.12 41.1953C159.12 40.5243 158.304 40.1617 157.764 40.5582C155.854 41.9579 153.832 42.6578 151.697 42.6578C148.353 42.6578 145.59 41.4487 143.405 39.0305C141.236 36.5627 140.152 33.4819 140.152 29.7884C140.152 26.1611 141.236 23.1384 143.405 20.7202C145.573 18.302 148.287 17.0929 151.548 17.0929C153.755 17.0929 155.785 17.8066 157.636 19.234C158.211 19.6774 159.12 19.2973 159.12 18.571ZM145.862 29.7884C145.862 32.1072 146.483 33.9954 147.724 35.4529C148.999 36.927 150.604 37.6641 152.541 37.6641C154.61 37.6641 156.282 36.9519 157.556 35.5275C158.831 34.0534 159.468 32.1818 159.468 29.9126C159.468 27.6435 158.831 25.7719 157.556 24.2978C156.282 22.8568 154.626 22.1363 152.59 22.1363C150.671 22.1363 149.065 22.8651 147.774 24.3226C146.5 25.7967 145.862 27.6187 145.862 29.7884Z" fill="white"/>
<path d="M172.778 22.981C171.997 22.981 171.365 23.6138 171.365 24.3944V40.5488C171.365 41.3294 170.733 41.9622 169.953 41.9622H167.192C166.411 41.9622 165.779 41.3294 165.779 40.5488V10.3077C165.779 9.52708 166.411 8.89429 167.192 8.89429H169.953C170.733 8.89429 171.365 9.52708 171.365 10.3077V16.3503C171.365 17.1309 171.997 17.7637 172.778 17.7637H174.298C175.078 17.7637 175.71 18.3965 175.71 19.1771V21.5677C175.71 22.3482 175.078 22.981 174.298 22.981H172.778Z" fill="white"/>
<path d="M1.6655 22.3274H1.66549C0.745667 22.3274 0 23.0764 0 24.0002V26.5095C0 27.4334 0.745667 28.1824 1.66549 28.1824H1.6655C2.58533 28.1824 3.33099 27.4334 3.33099 26.5095V24.0002C3.33099 23.0764 2.58533 22.3274 1.6655 22.3274Z" fill="white"/>
<path d="M9.16043 18.9816H9.16043C8.2406 18.9816 7.49493 19.7305 7.49493 20.6544V30.6916C7.49493 31.6155 8.2406 32.3644 9.16043 32.3644C10.0803 32.3644 10.8259 31.6155 10.8259 30.6916V20.6544C10.8259 19.7305 10.0803 18.9816 9.16043 18.9816Z" fill="white"/>
<path d="M16.6547 10.6173H16.6547C15.7349 10.6173 14.9892 11.3663 14.9892 12.2902V39.0559C14.9892 39.9798 15.7349 40.7287 16.6547 40.7287C17.5745 40.7287 18.3202 39.9798 18.3202 39.0559V12.2902C18.3202 11.3663 17.5745 10.6173 16.6547 10.6173Z" fill="white"/>
<path d="M24.1497 18.145H24.1497C23.2299 18.145 22.4842 18.894 22.4842 19.8179V31.505C22.4842 32.4289 23.2299 33.1778 24.1497 33.1778C25.0695 33.1778 25.8152 32.4289 25.8152 31.505V19.8179C25.8152 18.894 25.0695 18.145 24.1497 18.145Z" fill="white"/>
<path d="M31.6444 15.6359H31.6444C30.7246 15.6359 29.9789 16.3848 29.9789 17.3087V33.6994C29.9789 34.6233 30.7246 35.3723 31.6444 35.3723C32.5643 35.3723 33.3099 34.6233 33.3099 33.6994V17.3087C33.3099 16.3848 32.5643 15.6359 31.6444 15.6359Z" fill="white"/>
<path d="M39.1389 22.3274H39.1389C38.2191 22.3274 37.4734 23.0764 37.4734 24.0002V27.346C37.4734 28.2699 38.2191 29.0188 39.1389 29.0188H39.1389C40.0587 29.0188 40.8044 28.2699 40.8044 27.346V24.0002C40.8044 23.0764 40.0587 22.3274 39.1389 22.3274Z" fill="white"/>
</svg>
