<?xml version="1.0" encoding="utf-8"?>
<!-- Generator: Adobe Illustrator 15.0.0, SVG Export Plug-In . SVG Version: 6.00 Build 0)  -->
<!DOCTYPE svg PUBLIC "-//W3C//DTD SVG 1.1//EN" "http://www.w3.org/Graphics/SVG/1.1/DTD/svg11.dtd">
<svg version="1.1" id="Layer_1" xmlns="http://www.w3.org/2000/svg" xmlns:xlink="http://www.w3.org/1999/xlink" x="0px" y="0px"
	 width="245px" height="46px" viewBox="0 0 245 46" style="enable-background:new 0 0 245 46;" xml:space="preserve">
<style type="text/css">
<![CDATA[
	.st0{fill:#EE3124;}
	.st1{fill:#231F20;}
	.st2{fill:#FFFFFF;}
]]>
</style>
<g>
	<path class="st0" d="M13.29004,7.14307c0.00781-0.01172,0.01465-0.02344,0.02393-0.03516
		c0.19971-0.29199,0.11572-0.50879-0.01807-0.62598c-0.08496-0.0752-2.10205-1.2959-2.10205-1.2959
		c-0.146-0.09863-0.24219-0.26465-0.24219-0.4541c0-0.29883,0.1792-0.52539,0.58643-0.63867
		c1.2959-0.35547,5.85498-0.54199,7.40479-0.54199c0.53809,0,1.46289-0.00293,2.29492,0.02051l-0.03711-0.03516
		c-2.27197-1.93945-5.2207-3.1123-8.44287-3.1123C5.57275,0.42432-0.25,6.24756-0.25,13.43213
		c0,3.1582,1.125,6.05273,2.99707,8.30664c1.63379-2.35156,5.66797-8.1416,6.55176-9.32617
		c1.01807-1.36328,3.34131-4.39551,3.73389-4.91016l0.02002-0.02441L13.29004,7.14307z"/>
	<path class="st0" d="M4.82617,23.74268c2.19482,1.69043,4.9458,2.69629,7.93213,2.69629
		c7.18359,0,13.00684-5.82227,13.00684-13.00684c0-2.17383-0.5332-4.22266-1.47607-6.02344l0.00098,0.00098
		c0.44824-0.43164,0.96387-1.11426,0.62402-1.9707c-0.10498-0.25488-0.61084-0.83301-0.74072-0.97363l0.01758,0.0498
		c0.31738,0.95605-0.31006,1.55469-0.75977,1.96191c-0.24609,0.22559-3.54883,3.33789-7.42188,6.72559
		c-3.41504,2.98438-7.2334,6.02148-9.44531,7.67871c-3.11182,2.32812-3.7168,2.66699-3.7168,2.66699
		c-0.08301,0.04492-0.22021,0.08301-0.31982,0.08301c-0.19043,0-0.35645-0.08594-0.46045-0.22168l-0.00293-0.00391
		c-0.01562,0.03906-0.02197,0.0752-0.00684,0.09863c0.33301,0.54102,0.88574,1.16699,1.20898,1.16699
		c0.1001,0,0.23779-0.03809,0.31982-0.08105C3.58594,24.59033,3.83105,24.45459,4.82617,23.74268"/>
	<path class="st2" d="M13.29443,7.104c0.19971-0.29199,0.1167-0.51074-0.01709-0.62598
		c-0.08496-0.0752-2.10205-1.2959-2.10205-1.2959c-0.146-0.09961-0.24316-0.26465-0.24316-0.4541
		c0-0.30078,0.1792-0.52637,0.58594-0.63867c1.2959-0.35547,5.85596-0.54297,7.40527-0.54297
		c0.73096,0,2.17969-0.00488,3.13281,0.05859c1.06982,0.06934,1.88086,0.29199,2.08301,0.80859
		c0.396,1.0127-0.25879,1.63867-0.72412,2.06152c-0.24707,0.22363-3.54883,3.33789-7.42188,6.72363
		c-3.41504,2.98633-7.23389,6.02344-9.4458,7.67969c-3.11133,2.32812-3.71631,2.66699-3.71631,2.66699
		c-0.08301,0.04492-0.21973,0.08301-0.3208,0.08301c-0.32227,0-0.57617-0.24707-0.57617-0.56934
		c0-0.12305,0.03809-0.23828,0.10303-0.33105c0,0,6.12695-8.82715,7.24219-10.31934
		c1.11475-1.49219,3.79102-4.98535,3.79102-4.98535S13.10205,7.38428,13.29443,7.104"/>
	<path class="st1" d="M35.75,21.87354h9.5918v0.03125c0,1.75195-1.51514,3.20605-3.41504,3.20605H30.01904L38.80811,5.6001h-8.19629
		V5.45166c0-1.51562,1.30713-2.73242,2.94092-2.73242h10.66016L35.75,21.87354z"/>
	<path class="st1" d="M55.47705,16.46826c-3.47363,0.32812-5.58301,1.04102-5.58301,3.80176
		c0,2.0498,1.24707,2.96875,3.38525,2.96875c0.83301,0,1.81299-0.05859,2.19775-0.14648V16.46826z M55.47705,14.62842v-1.09961
		c0-2.1084-1.30664-2.67188-3.20703-2.67188c-1.57471,0-3.14795,0.5918-4.89893,1.51465V9.72705
		c1.03906-0.50391,2.99805-1.24707,5.55225-1.24707c3.35596,0,6.14697,1.69336,6.14697,5.85059v10.57129
		c-1.09814,0.20801-3.65234,0.44531-5.19629,0.44531h-0.83203c-4.39502,0-6.68262-1.83984-6.68262-4.95703
		C46.35938,16.11084,50.51709,15.10303,55.47705,14.62842"/>
	<path class="st1" d="M69.50098,11.2417c-0.41602-0.17676-1.00977-0.26562-1.63379-0.26562
		c-2.6123,0-3.77002,2.13672-3.77002,5.93848c0,3.68359,1.12695,5.73242,3.59277,5.73242c0.771,0,1.33691-0.15039,1.81104-0.41699
		V11.2417z M73.36182,25.14014c0,4.33594-2.64307,6.56445-6.65283,6.56445c-2.25586,0-4.36377-0.47559-5.61182-1.24902v-3.26562
		c1.604,1.24609,3.85986,1.69141,4.98975,1.69141c2.49316,0,3.41406-1.45703,3.41406-3.41309v-0.80273
		c-0.62402,0.3252-1.51318,0.44434-2.73096,0.44434c-3.86182,0-6.53418-3.14844-6.53418-8.0166
		c0-5.19727,2.61426-8.6123,7.81006-8.6123c2.04932,0,3.91992,0.53418,5.31592,1.2168v15.41211V25.14014z"/>
	<path class="st1" d="M80.8584,8.47998c0.65381,0,1.48389,0.06055,2.22607,0.17969v3.17676
		c-1.36621-0.97949-3.17725-0.65332-3.979-0.23828v9.77051c0,2.04883-1.69141,3.74121-3.74121,3.74121h-0.20801V9.75732
		C76.69922,9.01514,78.27637,8.47998,80.8584,8.47998"/>
	<path class="st1" d="M93.44971,14.71729c-0.11865-3.2959-2.16797-3.65332-3.26562-3.65332h-0.14941
		c-2.22559,0.05859-3.26562,1.63281-3.26562,4.57324L93.44971,14.71729z M96.89502,16.97412l-9.88916,1.36621
		c0.32617,2.70312,1.69287,4.12793,4.18701,4.12793c2.76221,0,4.1582-0.8916,5.16699-1.60547v3.2959
		c-1.00879,0.53418-2.87891,1.18945-5.55176,1.18945c-4.84229,0-7.72314-3.26758-7.72314-8.49316
		c0-5.07812,2.6748-8.375,7.06885-8.375c4.33594,0,6.74121,2.88086,6.74121,7.87012V16.97412z"/>
	<path class="st1" d="M102.20996,22.82373c0.38574,0.08887,1.30664,0.14844,1.87012,0.14844
		c2.70312,0,4.03906-2.04883,4.03906-5.73242c0-3.38477-1.12793-6.05664-4.30566-6.05664c-0.56348,0-1.09863,0.11914-1.60352,0.2666
		V22.82373z M102.20996,2.72021v6.76953c0.71387-0.20801,1.54395-0.35645,2.43652-0.35645c4.18457,0,7.06641,3.05859,7.06641,8.3457
		c0,5.0791-2.67285,7.86914-7.36426,7.86914h-0.68262c-1.24805,0-4.21875-0.20801-5.37598-0.44531V6.49072
		c0-2.07812,1.66309-3.77051,3.74219-3.77051H102.20996z"/>
	<path class="st1" d="M179.66211,22.82373c0.38672,0.08887,1.30664,0.14844,1.87012,0.14844
		c2.70312,0,4.03906-2.04883,4.03906-5.73242c0-3.38477-1.12793-6.05664-4.30566-6.05664c-0.56348,0-1.09766,0.11914-1.60352,0.2666
		V22.82373z M179.66211,2.72021v6.76953c0.71484-0.20801,1.54492-0.35645,2.43652-0.35645c4.18457,0,7.06738,3.05859,7.06738,8.3457
		c0,5.0791-2.67383,7.86914-7.36523,7.86914h-0.68262c-1.24805,0-4.21875-0.20801-5.37598-0.44531V6.49072
		c0-2.07812,1.66309-3.77051,3.74219-3.77051H179.66211z"/>
	<path class="st1" d="M121.7793,16.46826c-3.47656,0.32812-5.58301,1.04102-5.58301,3.80176
		c0,2.0498,1.24707,2.96875,3.38672,2.96875c0.83105,0,1.80957-0.05859,2.19629-0.14648V16.46826z M121.7793,14.62842v-1.09961
		c0-2.1084-1.30762-2.67188-3.20703-2.67188c-1.57324,0-3.14844,0.5918-4.90039,1.51465V9.72705
		c1.03906-0.50391,3-1.24707,5.55371-1.24707c3.35547,0,6.14648,1.69336,6.14648,5.85059v10.57129
		c-1.09863,0.20801-3.65234,0.44531-5.19629,0.44531h-0.83203c-4.39355,0-6.68164-1.83984-6.68164-4.95703
		C112.66211,16.11084,116.81934,15.10303,121.7793,14.62842"/>
	<path class="st1" d="M138.13281,2.30322l-3.02832,3.05957c-0.32617,0.35547-0.77148,0.50391-1.18848,0.50391
		c-0.44434,0-0.86035-0.14844-1.1875-0.50391l-3.02832-3.05957l0.38477-0.35547c0.17871-0.17871,0.44629-0.26855,0.74414-0.26855
		c0.2373,0,0.47461,0.06055,0.65332,0.20801l2.43359,1.87109l2.3457-1.81055c0.20801-0.14941,0.44727-0.26855,0.74316-0.26855
		c0.2373,0,0.47559,0.06055,0.6543,0.20801L138.13281,2.30322z M130.26367,16.79639c0,3.56348,2.19824,5.82031,4.54395,5.82031
		c0.50391,0,2.1084-0.17871,3.05957-1.69336v3.32617c-0.65332,0.62207-1.84082,1.09766-3.77148,1.09766
		c-3.83203,0-7.39551-3.17676-7.39551-8.49219s3.77148-8.37402,7.42383-8.37402c1.96191,0,3.11816,0.56348,3.74316,1.09766v2.67285
		c-1.00977-1.00977-1.90234-1.2168-2.94141-1.2168C132.28418,11.03467,130.26367,13.2915,130.26367,16.79639"/>
	<path class="st1" d="M143.08398,21.25049c0,2.1377-1.66309,3.85938-3.89062,3.85938h-0.0293V6.58057
		c0-2.13867,1.66406-3.86035,3.89062-3.86035h0.0293v13.48145l4.92969-7.30566h3.71191l-5.07715,7.42383l5.93848,8.79004h-4.1582
		l-5.34473-8.22461V21.25049z"/>
	<path class="st1" d="M161.22754,16.46826c-3.47461,0.32812-5.58105,1.04102-5.58105,3.80176
		c0,2.0498,1.24609,2.96875,3.38477,2.96875c0.83105,0,1.80957-0.05859,2.19629-0.14648V16.46826z M161.22754,14.62842v-1.09961
		c0-2.1084-1.30664-2.67188-3.20508-2.67188c-1.5752,0-3.15039,0.5918-4.90039,1.51465V9.72705
		c1.03906-0.50391,2.99707-1.24707,5.55273-1.24707c3.35645,0,6.14648,1.69336,6.14648,5.85059v10.57129
		c-1.09961,0.20801-3.65234,0.44531-5.19629,0.44531h-0.83203c-4.39355,0-6.67969-1.83984-6.67969-4.95703
		C152.11328,16.11084,156.26855,15.10303,161.22754,14.62842"/>
	<path class="st1" d="M199.11914,16.46826c-3.47363,0.32812-5.58203,1.04102-5.58203,3.80176
		c0,2.0498,1.24609,2.96875,3.38477,2.96875c0.83105,0,1.8125-0.05859,2.19727-0.14648V16.46826z M199.11914,14.62842v-1.09961
		c0-2.1084-1.30762-2.67188-3.20703-2.67188c-1.57324,0-3.14844,0.5918-4.90039,1.51465V9.72705
		c1.04102-0.50391,3.00098-1.24707,5.55371-1.24707c3.35547,0,6.14746,1.69336,6.14746,5.85059v10.57129
		c-1.09766,0.20801-3.65332,0.44531-5.19531,0.44531h-0.83398c-4.39355,0-6.68066-1.83984-6.68066-4.95703
		C190.00293,16.11084,194.16016,15.10303,199.11914,14.62842"/>
	<path class="st1" d="M211.08789,8.47998c5.55273,0,6.44336,3.11816,6.44336,4.99023v11.63965h-0.17871
		c-2.0498,0-3.80078-1.72168-3.80078-3.76953v-7.81152c0-1.09961-0.44434-2.40527-2.6123-2.40527
		c-1.00977,0-1.60352,0.11914-2.25781,0.35645v13.62988h-3.98047V9.69873C206.39453,8.95557,209.12793,8.47998,211.08789,8.47998"/>
	<path class="st1" d="M223.5127,21.25049c0,2.1377-1.66309,3.85938-3.89062,3.85938h-0.03027V6.58057
		c0-2.13867,1.66309-3.86035,3.89062-3.86035h0.03027v13.48145l4.92773-7.30566h3.71191l-5.07812,7.42383l5.94043,8.79004h-4.15723
		l-5.34473-8.22461V21.25049z"/>
	<path class="st1" d="M241.65527,16.46826c-3.47363,0.32812-5.58203,1.04102-5.58203,3.80176
		c0,2.0498,1.24707,2.96875,3.38477,2.96875c0.83203,0,1.8125-0.05859,2.19727-0.14648V16.46826z M241.65527,14.62842v-1.09961
		c0-2.1084-1.30566-2.67188-3.20801-2.67188c-1.57129,0-3.14551,0.5918-4.89941,1.51465V9.72705
		c1.04004-0.50391,3.00098-1.24707,5.55371-1.24707c3.35645,0,6.14844,1.69336,6.14844,5.85059v10.57129
		c-1.10059,0.20801-3.65332,0.44531-5.19727,0.44531h-0.83203c-4.39551,0-6.68164-1.83984-6.68164-4.95703
		C232.53906,16.11084,236.69629,15.10303,241.65527,14.62842"/>
	<path class="st0" d="M32.87207,42.97217c-1.75732,0-2.87109-1.14844-2.87109-2.6416v-6.28027h1.23389v6.26758
		c0,1.10938,0.79199,1.73438,1.70508,1.73438c0.89697,0,1.68896-0.625,1.68896-1.73438v-6.26758h1.12793v6.28027
		C35.75684,41.82373,34.64307,42.97217,32.87207,42.97217"/>
	<path class="st0" d="M40.93457,42.83057v-4.93848c0-0.6377-0.28076-1.3418-1.51611-1.3418
		c-0.66992,0-0.99268,0.0918-1.36865,0.24316v6.03711h-1.18018v-6.52148c0.64404-0.29395,1.48877-0.48535,2.64404-0.48535
		c2.01074,0,2.60205,1.05957,2.60205,2.04297v4.96387H40.93457z"/>
	<path class="st0" d="M43.229,35.95068h1.18115v6.88086H43.229V35.95068z M43.81934,34.62451
		c-0.38916,0-0.69824-0.28125-0.69824-0.61328c0-0.34473,0.30908-0.62402,0.69824-0.62402c0.37598,0,0.68408,0.2793,0.68408,0.62402
		C44.50342,34.34326,44.19531,34.62451,43.81934,34.62451"/>
	<path class="st0" d="M48.74268,42.9585c-2.21436,0-3.46094-2.02832-3.46094-4.51953c0-2.43652,1.23486-4.5166,3.46094-4.5166
		c0.81885,0,1.39502,0.2041,1.79688,0.48633l-0.29492,0.6875c-0.28125-0.16602-0.71094-0.34473-1.28711-0.34473
		c-1.771,0-2.38916,1.82617-2.38916,3.6875c0,1.90332,0.68506,3.63965,2.375,3.63965c0.56396,0,0.93896-0.1416,1.28906-0.3457
		l0.32129,0.74023C50.15137,42.76709,49.49365,42.9585,48.74268,42.9585"/>
	<path class="st0" d="M53.88086,36.69092c-0.58984-0.16504-1.26123-0.11328-1.6499,0.12891v6.01074H51.0498V36.3208
		c0.71094-0.34375,1.39502-0.52148,3.11279-0.48438L53.88086,36.69092z"/>
	<path class="st0" d="M56.91357,36.55127c-1.0459,0-1.8252,0.80469-1.79688,2.66797l3.46094-0.49707
		C58.57764,37.16357,57.9458,36.55127,56.91357,36.55127 M55.15674,39.81885c0.13281,1.55664,0.89795,2.32324,2.19775,2.32324
		c0.82031,0,1.41016-0.19141,1.78613-0.39648l0.30811,0.74121c-0.44336,0.25488-1.20801,0.47168-2.18604,0.47168
		c-1.89111,0-3.22021-1.13477-3.22021-3.58594c0-2.33594,1.20703-3.54883,2.91113-3.54883
		c1.73096,0,2.77686,1.07227,2.75098,3.37012L55.15674,39.81885z"/>
	<path class="st0" d="M64.45312,36.6665c-0.29492-0.07715-0.58984-0.12793-0.89795-0.12793
		c-1.6792,0-2.21484,1.37891-2.21484,2.87305c0,1.62012,0.58984,2.80664,2.06494,2.80664c0.48486,0,0.81982-0.05078,1.04785-0.19141
		V36.6665z M63.35205,42.9585c-2.06592,0-3.17773-1.37891-3.17773-3.45898c0-2.28418,1.2749-3.6123,3.1377-3.6123
		c0.40332,0,0.75342,0.05176,1.14111,0.1543v-3.23047h1.16797v9.66211C65.13721,42.75537,64.36035,42.9585,63.35205,42.9585"/>
	<path class="st0" d="M66.7334,35.95068h1.17969v6.88086H66.7334V35.95068z M67.32324,34.62451
		c-0.38916,0-0.69629-0.28125-0.69629-0.61328c0-0.34473,0.30713-0.62402,0.69629-0.62402c0.37598,0,0.68506,0.2793,0.68506,0.62402
		C68.0083,34.34326,67.69922,34.62451,67.32324,34.62451"/>
	<path class="st0" d="M71.21484,42.89502c-1.31543,0-1.79736-0.89453-1.79736-1.73535v-4.50586h-0.83301v-0.70312h0.83301v-1.58105
		l1.18018-0.34473v1.92578h1.26074v0.70312h-1.26074v4.47852c0,0.54883,0.25488,0.99805,0.91211,0.99805
		c0.12061,0,0.229-0.02637,0.34863-0.05176v0.71484C71.72461,42.83057,71.50977,42.89502,71.21484,42.89502"/>
	<path class="st0" d="M78.92871,42.9585c-2.14697,0-3.87695-1.47949-3.87695-4.58203c0-2.92188,1.771-4.4541,3.87695-4.4541
		c1.00488,0,1.71582,0.19238,2.15869,0.45898l-0.36182,0.72656c-0.30811-0.17773-0.84375-0.35645-1.66309-0.35645
		c-1.70508,0-2.73682,1.1748-2.73682,3.72754c0,2.3877,1.14111,3.66309,2.58887,3.66309c0.62988,0,0.96729-0.10254,1.15283-0.20508
		v-3.29199h-1.56885v-0.73926h2.76416v4.56738C80.69873,42.77881,80.08154,42.9585,78.92871,42.9585"/>
	<path class="st0" d="M85.12646,36.69092c-0.59082-0.16504-1.25977-0.11328-1.6499,0.12891v6.01074h-1.18115V36.3208
		c0.70996-0.34375,1.39502-0.52148,3.11426-0.48438L85.12646,36.69092z"/>
	<path class="st0" d="M88.12012,36.53857c-1.38184,0-1.6499,1.46777-1.6499,2.8584c0,1.39258,0.29492,2.78223,1.6499,2.78223
		c1.38086,0,1.63574-1.40332,1.63574-2.78223S89.50098,36.53857,88.12012,36.53857 M88.12012,42.9585
		c-1.97217,0-2.83105-1.54395-2.83105-3.56152c0-2.05469,0.87109-3.57227,2.81689-3.57227
		c1.98535,0,2.83008,1.51758,2.83008,3.57227C90.93604,41.41455,90.07812,42.9585,88.12012,42.9585"/>
	<path class="st0" d="M94.25098,42.97217c-1.81201,0-2.56299-0.86914-2.56299-2.24707v-4.77344h1.17969v4.81152
		c0,0.80371,0.45703,1.41699,1.4502,1.41699c0.56299,0,0.96582-0.08887,1.30078-0.28125v-5.94727h1.18018v6.4707
		C96.26367,42.71631,95.41699,42.97217,94.25098,42.97217"/>
	<path class="st0" d="M100.0332,36.49951c-0.44336,0-0.75342,0.07715-1.0332,0.19141v5.40039
		c0.229,0.08887,0.52295,0.15332,0.88477,0.15332c1.46289,0,2.21387-1.08594,2.21387-2.91113
		C102.09863,37.58447,101.56055,36.49951,100.0332,36.49951 M100.12598,42.93311c-0.41602,0-0.8584-0.07617-1.12598-0.16602v2.80859
		h-1.16699v-9.2666c0.48193-0.26758,1.21973-0.48535,2.25293-0.48535c2.03906,0,3.19238,1.35254,3.19238,3.45801
		C103.27832,41.56689,102.03125,42.93311,100.12598,42.93311"/>
</g>
</svg>
