<svg xmlns="http://www.w3.org/2000/svg" width="104" height="32" fill="none"><path fill="#11112B" fill-rule="evenodd" d="M12.74 30.075H1.968V1.817h9.941c4.918 0 7.818 2.487 7.818 6.12 0 1.769-.725 3.203-2.175 4.353-1.329 1.088-3.04 1.645-5.028 1.7v1.646h.06c2.899 0 5.123.669 6.729 2.055 1.604 1.388 2.433 3.06 2.433 5.02 0 4.257-2.95 7.364-9.008 7.364Zm3.728-15.395c3.364-1.149 5.178-4.016 5.178-6.886 0-4.828-3.938-7.602-9.995-7.602H0v31.557h12.999c3.155 0 5.694-.812 7.713-2.39 2.02-1.579 3.004-3.777 3.004-6.55 0-3.444-2.124-6.983-7.248-8.129ZM31.485 31.75h1.97V.141h-1.97V31.75ZM72.228 29.75v1.832H42.381V.168h2.153V29.75h27.694ZM102.834 1.856v1.823c-2.38-1.17-5.263-1.777-8.653-1.777-4.353 0-7.997 1.357-10.933 4.02-2.936 2.664-4.402 6.17-4.402 10.469 0 4.065 1.315 7.43 3.898 10.093 2.58 2.62 6.274 3.928 10.982 3.928 3.084 0 5.869-.468 8.399-1.448V16.577H104v13.601C101.215 31.392 97.673 32 93.268 32c-5.16 0-9.21-1.496-12.096-4.439-2.883-2.99-4.35-6.73-4.35-11.17 0-4.628 1.668-8.507 4.96-11.544C85.12 1.762 89.222.219 94.128.219c3.697 0 6.633.563 8.706 1.637Z" clip-rule="evenodd"/><path fill="#11112B" fill-rule="evenodd" d="M61.693 1.769c-2.126 0-3.755.576-4.844 1.712-1.08 1.128-1.627 2.955-1.627 5.43v5.694c0 2.363.555 4.116 1.65 5.21 1.1 1.1 2.722 1.658 4.821 1.658 4.245 0 6.398-2.311 6.398-6.868V8.911c0-4.74-2.153-7.142-6.398-7.142Zm-.036 21.507c-2.639 0-4.757-.709-6.294-2.107-1.537-1.397-2.316-3.651-2.316-6.701v-5.66c0-3.049.785-5.303 2.333-6.7C56.93.709 59.055 0 61.693 0c2.614 0 4.72.708 6.257 2.107 1.537 1.397 2.317 3.651 2.317 6.701v5.66c0 3.05-.786 5.303-2.334 6.7-1.551 1.399-3.662 2.108-6.276 2.108Z" clip-rule="evenodd"/></svg>