<svg xmlns="http://www.w3.org/2000/svg" shape-rendering="geometricPrecision" text-rendering="geometricPrecision" image-rendering="optimizeQuality" fill-rule="evenodd" clip-rule="evenodd" viewBox="0 0 512 370.38"><path d="m13.51 158.13 9.57 118.61c1.29 12.26 3.94 20.14 7.68 24.48 2.96 3.43 7 4.41 11.85 3.52.39-.07.77-.1 1.15-.1l46.28-.02.69.03c6.49.11 10.98-1.82 13.8-5.45 3.29-4.23 4.89-10.9 5.14-19.51l-.02-130.76c-.17-.58-.26-1.19-.26-1.82 0-.17 0-.34.02-.51-.72-4.17-2.54-6.98-5.24-8.73-3.73-2.41-9.33-3.34-16.18-3.26h-.08v.03l-58.74-.01c-6.05.29-10.69 1.74-13.29 4.86-2.78 3.34-3.78 9.11-2.43 18.05l.06.59zm374.41-5.04c0-2.1.13-4.09.39-5.97l-21.77-14.54c-3.13-2.09-6.56-4.49-10-6.9-5.87-4.11-11.81-8.27-17.91-11.91 2.14-3.7 4.02-7.58 5.61-11.6 6.77 3.97 13.25 8.52 19.64 13 3.19 2.23 6.36 4.45 9.79 6.74l19.35 12.88c.98-1.36 2.11-2.6 3.37-3.74 5.53-4.98 13.45-7.41 23.61-7.42v-.03l55.1.02c11.52-.04 20.91 2.06 27.4 7.06 7.22 5.57 10.62 14.04 9.17 26.19l-12.18 125.89c-.89 11.23-3.86 20.05-9.15 26.13-5.63 6.47-13.47 9.66-23.74 9.23l-49.55.01c-6.94.36-12.82-1.52-17.75-5.45-3.6-2.88-6.58-6.82-8.97-11.73h-17.14c2.31 6.75 2.19 13.16.35 18.84-1.9 5.86-5.59 10.84-10.3 14.58-4.61 3.66-10.24 6.16-16.12 7.12-5.75.94-11.76.43-17.35-1.89-6.51 6.79-13.35 11.08-20.49 13.04-7.17 1.97-14.43 1.57-21.78-1-6.97 7.72-14.68 12.57-23.18 14.41-8.65 1.88-17.84.58-27.59-4.01-3.03 2.38-6.21 4.26-9.53 5.63-4.7 1.94-9.64 2.84-14.79 2.69-12.35-.36-20.67-4.02-27.29-9.94-6.31-5.64-10.57-12.89-15.35-21.23l-27.31-47.64h-21.18c-1.23 6.16-3.38 11.37-6.59 15.5-5.4 6.97-13.33 10.66-24.29 10.44l-46.21.01c-9.15 1.49-17-.76-23.14-7.88-5.44-6.3-9.16-16.51-10.75-31.53l-.06-.55L.69 159.25c-1.9-12.77.2-21.8 5.33-27.97 5.18-6.22 12.98-9.03 22.6-9.48l.79-.05h58.5v.03c9.23-.1 17.17 1.42 23.2 5.32 4.85 3.14 8.33 7.56 10.12 13.57h39.81c10-6.75 19.37-12.05 29.73-15.28 1.54-.48 3.09-.91 4.67-1.29 2.11 2.67 4.37 5.21 6.77 7.61a84.39 84.39 0 0 0 3.77 3.56c-3.99.46-7.76 1.27-11.39 2.4-9.35 2.91-18.07 7.99-27.61 14.5-1.1.87-2.49 1.38-3.99 1.38h-40.46v125.12h23.65c2.5 0 4.67 1.42 5.74 3.5l29.03 50.63c4.25 7.42 8 13.83 12.73 18.06 4.42 3.95 10.2 6.4 19.08 6.67 3.34.09 6.53-.49 9.57-1.74 1.86-.77 3.69-1.81 5.48-3.11l-18.91-35.39a6.412 6.412 0 0 1 2.64-8.68 6.41 6.41 0 0 1 8.68 2.64l20.56 38.47c7.65 3.89 14.59 5.1 20.83 3.75 5.7-1.23 11.08-4.66 16.13-10.19l-29.62-46.5a6.41 6.41 0 0 1 1.97-8.85 6.4 6.4 0 0 1 8.85 1.96l31.22 49.02c5.48 2.22 10.74 2.72 15.75 1.35 4.78-1.32 9.57-4.38 14.35-9.34l-28.29-53.25c-1.66-3.14-.47-7.04 2.67-8.7a6.44 6.44 0 0 1 8.71 2.66l29.26 55.09c3.8 2.21 8.21 2.78 12.45 2.09 3.7-.61 7.26-2.19 10.17-4.51 2.82-2.23 5-5.13 6.08-8.44 1.17-3.63 1.05-7.9-.97-12.53a6.45 6.45 0 0 1-.52-2.97 6.456 6.456 0 0 1-3.66-4.26l-64.23-115.85c-7.13-11.94-13.57-12.25-19.79-8.54-4.41 2.63-9.05 6.87-13.7 11.11-2.81 2.58-5.64 5.16-7.98 7.09l-11.4 9.39c-7.94 6.32-16.88 9.7-25.36 10.41-5.64.46-11.13-.26-16.06-2.11-5.1-1.91-9.57-5.01-12.96-9.23-3.66-4.53-6.05-10.29-6.62-17.13-.16-1.97.58-3.79 1.86-5.08l30.97-36.85c3.41 2.61 7.03 4.98 10.81 7.06l-30.47 36.27c.6 3.06 1.81 5.63 3.46 7.68 1.91 2.38 4.48 4.15 7.43 5.25 3.12 1.18 6.72 1.62 10.53 1.31 6.08-.5 12.56-2.99 18.4-7.62l11.21-9.26c2.83-2.34 5.18-4.49 7.53-6.64 5.17-4.72 10.34-9.44 15.76-12.67 12.56-7.49 25.06-7.74 37.42 13l63.39 114.32h21.54l.02-134.92zM263.53 0c38.89 0 70.4 31.53 70.4 70.4 0 38.89-31.53 70.39-70.4 70.39-38.9 0-70.4-31.52-70.4-70.39 0-38.9 31.52-70.4 70.4-70.4zm-19.64 63.86c2.44 1.4 4.45 2.69 6.33 4.15a39.47 39.47 0 0 1 4.07 3.63c3.37-4.93 9.81-13.04 16.15-19.81 5.29-5.64 10.59-10.41 14.17-11.8l.31-.12h18.79l-2.55 2.83c-9.82 10.91-17.57 19.96-24.53 29.52-6.96 9.57-13.18 19.71-19.98 32.82l-1.58 3.04-1.45-3.1c-3.51-7.51-6.83-13.86-11-19.49-4.14-5.6-9.15-10.54-16.08-15.29l-3.2-2.19 19.98-4.52.57.33zM65.73 249.69c6.11 0 11.07 4.95 11.07 11.07 0 6.11-4.96 11.07-11.07 11.07-6.12 0-11.08-4.96-11.08-11.07 0-6.12 4.96-11.07 11.08-11.07zm378.78 0c6.12 0 11.08 4.95 11.08 11.07 0 6.11-4.96 11.07-11.08 11.07-6.11 0-11.07-4.96-11.07-11.07 0-6.12 4.96-11.07 11.07-11.07z"/></svg>