<svg xmlns="http://www.w3.org/2000/svg" fill="none" viewBox="-0.5 -0.5 14 14" height="14" width="14"><g id="collaborations-idea--collaborations-idea-work"><path id="Vector" fill="#d6e0e5" d="M3.8944285714285716 7.515857142857143a1.7271428571428573 1.7271428571428573 0 1 0 0 -3.453357142857143 1.7271428571428573 1.7271428571428573 0 0 0 0 3.453357142857143Z" stroke-width="1"></path><path id="Vector_2" fill="#d6e0e5" d="M0.9285714285714286 10.868928571428572a3.4171428571428573 3.4171428571428573 0 0 0 -0.44292857142857145 1.6472857142857145h6.819428571428572a3.4171428571428573 3.4171428571428573 0 0 0 -0.44292857142857145 -1.6472857142857145 3.4459285714285715 3.4459285714285715 0 0 0 -2.9667857142857144 -1.7345714285714287A3.4459285714285715 3.4459285714285715 0 0 0 0.9285714285714286 10.868928571428572Z" stroke-width="1"></path><path id="Vector_3" fill="#d6e0e5" d="M11.06857142857143 4.696714285714286a1.9082142857142859 1.9082142857142859 0 0 0 -1.927714285714286 -1.8961428571428571 1.9082142857142859 1.9082142857142859 0 0 0 -1.8487857142857145 1.9750714285714284 1.919357142857143 1.919357142857143 0 0 0 1.0455714285714286 1.6064285714285715v0.9285714285714286a0.2107857142857143 0.2107857142857143 0 0 0 0.20985714285714288 0.2042857142857143h1.2637857142857143a0.2107857142857143 0.2107857142857143 0 0 0 0.2107857142857143 -0.2042857142857143V6.365357142857143a1.9212142857142858 1.9212142857142858 0 0 0 1.0474285714285714 -1.668642857142857Z" stroke-width="1"></path><path id="Vector_4" stroke="#4caf50" stroke-linecap="round" stroke-linejoin="round" d="M3.8944285714285716 7.515857142857143a1.7271428571428573 1.7271428571428573 0 1 0 0 -3.453357142857143 1.7271428571428573 1.7271428571428573 0 0 0 0 3.453357142857143Z" stroke-width="1"></path><path id="Vector_5" stroke="#4caf50" stroke-linecap="round" stroke-linejoin="round" d="M0.48564285714285715 12.516214285714286A3.4171428571428573 3.4171428571428573 0 0 1 0.9285714285714286 10.868a3.4459285714285715 3.4459285714285715 0 0 1 2.9667857142857144 -1.7345714285714287c1.2164285714285714 0.002785714285714286 2.367857142857143 0.6750714285714285 2.9667857142857144 1.7345714285714287a3.4171428571428573 3.4171428571428573 0 0 1 0.44292857142857145 1.6472857142857145" stroke-width="1"></path><path id="Vector 606" stroke="#4caf50" stroke-linecap="round" stroke-linejoin="round" d="M9.180785714285715 1.2842142857142858v-0.7614285714285715" stroke-width="1"></path><path id="Vector 610" stroke="#4caf50" stroke-linecap="round" stroke-linejoin="round" d="m11.779857142857143 2.2192857142857143 0.6230714285714286 -0.43735714285714283" stroke-width="1"></path><path id="Vector 611" stroke="#4caf50" stroke-linecap="round" stroke-linejoin="round" d="m6.5798571428571435 2.2192857142857143 -0.6240000000000001 -0.43735714285714283" stroke-width="1"></path><path id="Vector_6" stroke="#4caf50" stroke-linecap="round" stroke-linejoin="round" d="M11.06857142857143 4.696714285714286a1.9082142857142859 1.9082142857142859 0 0 0 -1.928642857142857 -1.8961428571428571 1.9082142857142859 1.9082142857142859 0 0 0 -1.8478571428571429 1.9750714285714284 1.919357142857143 1.919357142857143 0 0 0 1.0455714285714286 1.6064285714285715v0.9285714285714286a0.2107857142857143 0.2107857142857143 0 0 0 0.20985714285714288 0.2042857142857143h1.2637857142857143a0.2107857142857143 0.2107857142857143 0 0 0 0.2107857142857143 -0.2042857142857143V6.365357142857143a1.9221428571428572 1.9221428571428572 0 0 0 1.0474285714285714 -1.668642857142857Z" stroke-width="1"></path></g></svg>