<?xml version="1.0" encoding="UTF-8" standalone="no"?>
<!-- Created with Inkscape (http://www.inkscape.org/) -->

<svg
   version="1.1"
   id="svg2"
   width="1903.1467"
   height="1261.4933"
   viewBox="0 0 1903.1467 1261.4933"
   sodipodi:docname="teamWork.eps"
   xmlns:inkscape="http://www.inkscape.org/namespaces/inkscape"
   xmlns:sodipodi="http://sodipodi.sourceforge.net/DTD/sodipodi-0.dtd"
   xmlns="http://www.w3.org/2000/svg"
   xmlns:svg="http://www.w3.org/2000/svg">
  <defs
     id="defs6" />
  <sodipodi:namedview
     id="namedview4"
     pagecolor="#ffffff"
     bordercolor="#000000"
     borderopacity="0.25"
     inkscape:showpageshadow="2"
     inkscape:pageopacity="0.0"
     inkscape:pagecheckerboard="0"
     inkscape:deskcolor="#d1d1d1" />
  <g
     id="g8"
     inkscape:groupmode="layer"
     inkscape:label="ink_ext_XXXXXX"
     transform="matrix(1.3333333,0,0,-1.3333333,0,1261.4933)">
    <g
       id="g10"
       transform="scale(0.1)">
      <path
         d="M 12716.3,154.141 H 921.891 C 675.391,891.859 555.543,2060.67 1820.59,2815.19 3787.21,3987.93 3787.21,5299.13 3441.97,6334.14 3097.09,7368.8 3580.07,9715 6408.9,9438.81 9237.73,9162.98 9168.68,6782.42 10410.8,6368.49 11652.6,5954.56 12722.3,4609.02 11928.8,3332.51 11179,2126.14 11539.6,720.129 12716.3,154.141"
         style="fill:#ecf3fe;fill-opacity:1;fill-rule:nonzero;stroke:none"
         id="path12" />
      <path
         d="M 6428.27,7656.31 H 5692.4 c -82.84,0 -150,67.16 -150,150 v 735.87 c 0,82.84 67.16,150 150,150 h 735.87 c 82.84,0 150,-67.16 150,-150 v -735.87 c 0,-82.84 -67.16,-150 -150,-150"
         style="fill:#b7cae5;fill-opacity:1;fill-rule:nonzero;stroke:none"
         id="path14" />
      <path
         d="m 5647.14,7821.05 v 706.4 c 0,33.13 26.86,60 60,60 h 706.39 c 33.14,0 60,-26.87 60,-60 v -706.4 c 0,-33.14 -26.86,-60 -60,-60 h -706.39 c -33.14,0 -60,26.86 -60,60"
         style="fill:#92afcc;fill-opacity:1;fill-rule:nonzero;stroke:none"
         id="path16" />
      <path
         d="m 6060.34,8070.63 c -9.1,0 -16.46,7.37 -16.46,16.46 v 419.86 c 0,9.09 7.36,16.47 16.46,16.47 9.09,0 16.47,-7.38 16.47,-16.47 v -419.86 c 0,-9.09 -7.38,-16.46 -16.47,-16.46"
         style="fill:#ecf3fe;fill-opacity:1;fill-rule:nonzero;stroke:none"
         id="path18" />
      <path
         d="m 5815.45,8070.62 c -7.08,0 -13.62,4.61 -15.76,11.75 -2.61,8.7 2.34,17.88 11.05,20.5 l 317.81,95.26 c 8.71,2.58 17.88,-2.35 20.5,-11.05 2.61,-8.71 -2.34,-17.89 -11.05,-20.5 l -317.81,-95.26 c -1.58,-0.48 -3.17,-0.7 -4.74,-0.7"
         style="fill:#ecf3fe;fill-opacity:1;fill-rule:nonzero;stroke:none"
         id="path20" />
      <path
         d="M 14273.6,154.09 C 14273.6,68.9922 11078.4,-0.0078125 7136.82,-0.0078125 3195.26,-0.0078125 0,68.9922 0,154.09 c 0,85.09 3195.26,154.082 7136.82,154.082 3941.58,0 7136.78,-68.992 7136.78,-154.082"
         style="fill:#d7e6f7;fill-opacity:1;fill-rule:nonzero;stroke:none"
         id="path22" />
      <path
         d="M 4466.26,2017.52 H 3191.39 v 140.5 h 1274.87 v -140.5"
         style="fill:#b7cae5;fill-opacity:1;fill-rule:nonzero;stroke:none"
         id="path24" />
      <path
         d="M 2407.37,2017.52 2278.39,154.141 h 76.95 l 234.17,1863.379 h -182.14"
         style="fill:#92afcc;fill-opacity:1;fill-rule:nonzero;stroke:none"
         id="path26" />
      <path
         d="M 3191.39,2017.52 3062.4,154.141 h 76.94 l 234.18,1863.379 h -182.13"
         style="fill:#b7cae5;fill-opacity:1;fill-rule:nonzero;stroke:none"
         id="path28" />
      <path
         d="M 4466.26,2017.52 4595.24,154.141 H 4518.3 L 4284.13,2017.52 h 182.13"
         style="fill:#b7cae5;fill-opacity:1;fill-rule:nonzero;stroke:none"
         id="path30" />
      <path
         d="M 3758.15,2017.52 3887.13,154.141 h -76.95 L 3576.01,2017.52 h 182.14"
         style="fill:#92afcc;fill-opacity:1;fill-rule:nonzero;stroke:none"
         id="path32" />
      <path
         d="M 4527.57,2278.46 H 3130.08 v -120.44 h 1397.49 v 120.44"
         style="fill:#5693db;fill-opacity:1;fill-rule:nonzero;stroke:none"
         id="path34" />
      <path
         d="m 2360.66,2278.46 h 769.42 v -120.44 h -769.42 v 120.44"
         style="fill:#3177bc;fill-opacity:1;fill-rule:nonzero;stroke:none"
         id="path36" />
      <path
         d="m 2407.37,2017.52 h 784.02 v 140.5 h -784.02 v -140.5"
         style="fill:#92afcc;fill-opacity:1;fill-rule:nonzero;stroke:none"
         id="path38" />
      <path
         d="M 2606.02,4312.26 H 2471.2 v -2033.8 h 134.82 v 2033.8"
         style="fill:#92afcc;fill-opacity:1;fill-rule:nonzero;stroke:none"
         id="path40" />
      <path
         d="m 3126.81,4312.26 h -134.82 v -2033.8 h 134.82 v 2033.8"
         style="fill:#92afcc;fill-opacity:1;fill-rule:nonzero;stroke:none"
         id="path42" />
      <path
         d="m 3647.61,4312.26 h -134.82 v -2033.8 h 134.82 v 2033.8"
         style="fill:#92afcc;fill-opacity:1;fill-rule:nonzero;stroke:none"
         id="path44" />
      <path
         d="m 3658.7,4708.41 c -384.76,-61.89 -785.61,-58.16 -1200.39,2.31 -51.49,7.5 -97.65,-32.46 -97.65,-84.51 v -646.6 c 0,-41.97 30.53,-77.4 71.91,-84.42 417.89,-70.97 835.78,-70.97 1253.67,0 41.38,7.02 71.91,42.45 71.91,84.42 v 644.54 c 0,52.8 -47.33,92.65 -99.45,84.26"
         style="fill:#b7cae5;fill-opacity:1;fill-rule:nonzero;stroke:none"
         id="path46" />
      <path
         d="m 4044.76,5202.45 41.46,-18.27 c 55.47,-24.44 98.64,-70.35 119.63,-127.21 l 284.2,-769.77 918.35,-317.92 -348.45,-114.32 -845.72,77.31 -224.58,387.32 c 0,0 -78.44,727.33 55.11,882.86"
         style="fill:#89aeff;fill-opacity:1;fill-rule:nonzero;stroke:none"
         id="path48" />
      <path
         d="m 3250.66,3126.78 51,-406.65 c 0,-232.44 188.43,-420.87 420.87,-420.87 L 4638.22,2139.29 4769.78,696 h 391.6 l 121,1693.4 c 10.88,152.23 -92.69,288.96 -242.17,319.73 l -1087.66,452.72 -112.17,84.09 -589.72,-119.16"
         style="fill:#46345e;fill-opacity:1;fill-rule:nonzero;stroke:none"
         id="path50" />
      <path
         d="M 4801.65,443.711 V 688.93 l 322.69,-23.86 9.27,-221.359 -73.28,-99.34 -219.59,29.5 -39.09,69.84"
         style="fill:#fdbeb7;fill-opacity:1;fill-rule:nonzero;stroke:none"
         id="path52" />
      <path
         d="m 4801.65,443.711 -63.48,-141.359 c -16.51,-76.211 41.56,-148.211 119.54,-148.211 h 711.89 c 55.72,0 72.21,75.89 21.52,99.011 l -457.51,190.559 c -157.92,-25.109 -252.38,-60.25 -331.96,0"
         style="fill:#89aeff;fill-opacity:1;fill-rule:nonzero;stroke:none"
         id="path54" />
      <path
         d="m 5171.73,720.742 h -419.1 c -16.58,0 -30,-13.441 -30,-30 V 597.18 c 0,-16.571 13.42,-30 30,-30 h 419.1 c 16.57,0 30,13.429 30,30 v 93.562 c 0,16.559 -13.43,30 -30,30"
         style="fill:#2e243f;fill-opacity:1;fill-rule:nonzero;stroke:none"
         id="path56" />
      <path
         d="m 2708.21,2920.71 v -200.58 c 0,-232.44 187.29,-377.75 420.86,-420.87 L 4044.76,2202.67 4176.32,696 h 391.6 l 121,1693.4 c 10.88,152.23 -92.69,288.96 -242.17,319.73 l -909.8,347.22 -154.52,189.59 -674.22,-325.23"
         style="fill:#46345e;fill-opacity:1;fill-rule:nonzero;stroke:none"
         id="path58" />
      <path
         d="M 4208.19,443.711 V 688.93 l 322.69,-23.86 9.28,-221.359 -73.29,-99.34 -219.59,29.5 -39.09,69.84"
         style="fill:#fdbeb7;fill-opacity:1;fill-rule:nonzero;stroke:none"
         id="path60" />
      <path
         d="m 4208.19,443.711 -63.48,-141.359 c -16.51,-76.211 41.56,-148.211 119.54,-148.211 h 711.9 c 55.71,0 72.2,75.89 21.51,99.011 l -457.5,190.559 c -157.92,-25.109 -252.39,-60.25 -331.97,0"
         style="fill:#89aeff;fill-opacity:1;fill-rule:nonzero;stroke:none"
         id="path62" />
      <path
         d="m 4578.27,720.742 h -419.11 c -16.56,0 -30,-13.441 -30,-30 V 597.18 c 0,-16.571 13.44,-30 30,-30 h 419.11 c 16.57,0 30,13.429 30,30 v 93.562 c 0,16.559 -13.43,30 -30,30"
         style="fill:#2e243f;fill-opacity:1;fill-rule:nonzero;stroke:none"
         id="path64" />
      <path
         d="m 3989.65,4655.61 127.82,-556.47 -127.82,218.54 z"
         style="fill:#46345e;fill-opacity:1;fill-rule:nonzero;stroke:none"
         id="path66" />
      <path
         d="m 4044.85,5202.41 c 0,0 -5.2,-492.03 -13.36,-869.02 l -4.7,-175.63 c -0.25,-12.62 -0.74,-24.74 -1.24,-36.37 l -1.73,-49.23 -0.5,-18.3 c -0.24,-4.95 -0.49,-9.65 -0.74,-14.34 -2.22,-47.26 -5.69,-104.4 -10.14,-167.23 -2.97,-43.05 -6.18,-89.05 -9.89,-136.06 -2.23,-27.21 -4.21,-53.92 -6.43,-80.14 -22.02,-274.09 -43.54,-494.26 -43.54,-494.26 -505.38,50.71 -1233.16,-307.24 -1233.16,-307.24 -43.29,57.4 -95.49,115.28 -95.49,115.28 -75.44,381.7 -108.1,700.56 -102.66,1083.99 0.5,22.51 0.75,45.02 1.24,67.53 0.5,12.12 0.75,24.25 0.99,36.37 1.48,58.87 3.71,117.25 6.19,175.63 1.24,26.72 2.47,53.43 3.96,80.15 8.9,178.6 21.76,353.74 35.62,522.95 10.39,128.38 92.76,239.7 211.74,288.19 l 3.47,1.48 396.54,162.03 16.82,6.93 10.14,3.96 302.29,3.21 91.29,-29.93 18.05,-5.69 425.24,-164.26"
         style="fill:#89aeff;fill-opacity:1;fill-rule:nonzero;stroke:none"
         id="path68" />
      <path
         d="m 4031.41,4333.29 -4.71,-175.64 H 2523.42 c 1.49,58.88 3.71,117.26 6.18,175.64 h 1501.81"
         style="fill:#aecbff;fill-opacity:1;fill-rule:nonzero;stroke:none"
         id="path70" />
      <path
         d="m 4025.47,4121.28 -2.23,-67.53 H 2521.19 c 0.49,22.51 0.74,45.02 1.24,67.53 h 1503.04"
         style="fill:#aecbff;fill-opacity:1;fill-rule:nonzero;stroke:none"
         id="path72" />
      <path
         d="m 3592.49,5159.42 c -8.91,-26.22 -36.86,-41.32 -63.82,-34.14 -64.56,17.32 -118.5,51.21 -118.5,51.21 -37.84,-29.69 -83.85,-37.36 -120.71,-37.6 -38.84,-0.5 -73.47,25.72 -84.6,62.83 -24.49,81.38 -24.99,156.09 -24,186.27 l 16.82,6.93 10.15,3.96 302.29,3.21 91.28,-29.93 18.05,-5.69 c 9.9,-79.9 -10.63,-159.81 -26.96,-207.05"
         style="fill:#dce9ff;fill-opacity:1;fill-rule:nonzero;stroke:none"
         id="path74" />
      <path
         d="m 3971.26,6013.72 c 0,0 153.64,74.46 236.95,241.77 9.23,18.53 -0.23,41.45 -19.94,47.76 -42.77,13.7 -118.24,50.41 -203.86,148.48 -132.69,151.98 -632,238.5 -806.8,-65.63 0,0 -219.72,-74.49 -198.85,-300.4 20.87,-225.92 227.34,-468.18 227.34,-468.18 l 765.16,396.2"
         style="fill:#46345e;fill-opacity:1;fill-rule:nonzero;stroke:none"
         id="path76" />
      <path
         d="m 3988.04,6022.75 c -2.97,-59.62 -11.87,-138.28 -33.15,-231.54 -38.34,-167.47 -187.26,-286.21 -358.94,-285.22 l 4.95,-54.42 2.47,-27.22 c 0.25,-2.22 0.25,-4.69 0.5,-6.92 0.99,-15.34 0,-30.68 -2.47,-45.27 -12.13,-73.72 -64.57,-135.32 -136.06,-159.07 -14.34,-4.94 -29.93,-8.4 -46.01,-9.89 -8.66,-0.74 -17.56,-0.99 -26.22,-0.49 -101.92,3.46 -185.53,82.62 -194.68,184.04 -0.25,2.72 -0.5,5.45 -0.75,8.17 -0.24,3.96 -0.24,7.91 -0.24,11.87 0,2.47 0,4.95 0.24,7.67 l 1.24,31.66 7.17,171.43 c 0,0 69.02,56.4 87.33,147.19 0,0 -101.18,-16.82 -125.17,167.96 0,0 -1.24,185.04 150.15,54.43 l 3.96,-42.55 c 1.24,-14.84 14.59,-25.48 29.19,-23.5 11.62,1.48 21.03,10.63 22.51,22.51 l 10.39,81.88 c 0,0 79.16,-33.15 103.16,134.08 0,0 173.4,-73.47 304.51,-0.5 0,0 111.57,-61.84 194.19,-7.91 0,0 6.18,-46.51 1.73,-128.39"
         style="fill:#fdbeb7;fill-opacity:1;fill-rule:nonzero;stroke:none"
         id="path78" />
      <path
         d="m 3652.51,5928.98 c 1.32,-14.36 -9.26,-27.06 -23.61,-28.38 -14.36,-1.31 -27.07,9.26 -28.38,23.62 -1.32,14.36 9.26,27.06 23.61,28.38 14.36,1.32 27.07,-9.26 28.38,-23.62"
         style="fill:#46345e;fill-opacity:1;fill-rule:nonzero;stroke:none"
         id="path80" />
      <path
         d="m 3898.5,5922.37 c 1.31,-14.35 -9.26,-27.06 -23.62,-28.37 -14.36,-1.32 -27.06,9.26 -28.38,23.61 -1.32,14.36 9.26,27.07 23.62,28.38 14.36,1.31 27.06,-9.26 28.38,-23.62"
         style="fill:#46345e;fill-opacity:1;fill-rule:nonzero;stroke:none"
         id="path82" />
      <path
         d="m 3223.71,5991.86 c 0,0 94.72,-4.75 99.47,-118.99 0,0 -20.3,21.26 -33.6,14.68 -16.85,-8.34 -9.22,-29.35 -9.22,-29.35"
         style="fill:none;stroke:#46345e;stroke-width:15;stroke-linecap:round;stroke-linejoin:round;stroke-miterlimit:10;stroke-dasharray:none;stroke-opacity:1"
         id="path84" />
      <path
         d="m 3542.93,6005.24 c 0,0 70.71,38.11 133.6,3.37"
         style="fill:none;stroke:#46345e;stroke-width:22.5;stroke-linecap:round;stroke-linejoin:round;stroke-miterlimit:10;stroke-dasharray:none;stroke-opacity:1"
         id="path86" />
      <path
         d="m 3940.83,6007.7 c 0,0 -72.36,34.87 -133.61,-2.69"
         style="fill:none;stroke:#46345e;stroke-width:22.5;stroke-linecap:round;stroke-linejoin:round;stroke-miterlimit:10;stroke-dasharray:none;stroke-opacity:1"
         id="path88" />
      <path
         d="m 3615.29,5735.05 c 0,0 63.84,-67.06 156.73,-32.21"
         style="fill:none;stroke:#46345e;stroke-width:22.5;stroke-linecap:round;stroke-linejoin:round;stroke-miterlimit:10;stroke-dasharray:none;stroke-opacity:1"
         id="path90" />
      <path
         d="m 3595.91,5505.93 c 0,0 -94.27,18.68 -167.51,111.68 0,0 55.75,-148.2 172.48,-165.97 l -4.97,54.29"
         style="fill:#ec6c7d;fill-opacity:1;fill-rule:nonzero;stroke:none"
         id="path92" />
      <path
         d="m 4012.44,3872.29 c -2.97,-43.05 -6.18,-89.05 -9.89,-136.06 -2.23,-27.21 -4.21,-53.92 -6.43,-80.14 h -976.14 c -92.76,0 -175.88,56.89 -209.77,143.22 l -151.64,389.12 1353.87,-316.14"
         style="fill:#46345e;fill-opacity:1;fill-rule:nonzero;stroke:none"
         id="path94" />
      <path
         d="m 4312.16,4026.14 315.89,65.04 129.47,-110.02 74.05,-153.96 -236.4,-45.53 -77.7,32.46 -222.14,-55.91 -146.8,82.08 c 0,0 114.73,175.77 163.63,185.84"
         style="fill:#fdbeb7;fill-opacity:1;fill-rule:nonzero;stroke:none"
         id="path96" />
      <path
         d="m 4211.24,3737.72 -208.78,-1.49 -918.75,-6.68 c -104.63,-0.74 -201.1,55.91 -252.07,147.19 l -298.08,536.8 c 8.9,178.6 21.77,353.74 35.62,522.95 10.39,128.38 92.77,239.7 211.75,288.19 l 3.47,1.48 129.37,-106.61 359.68,-927.41 750.28,-119.98 288.45,-46 c -113.55,-81.63 -100.94,-288.44 -100.94,-288.44"
         style="fill:#89aeff;fill-opacity:1;fill-rule:nonzero;stroke:none"
         id="path98" />
      <path
         d="m 3843.91,3793.05 h 931.46 v -55.56 h -931.46 v 55.56"
         style="fill:#9b9b9b;fill-opacity:1;fill-rule:nonzero;stroke:none"
         id="path100" />
      <path
         d="m 4587.27,3737.49 h 1233.79 c 10.68,0 20.16,6.86 23.5,17.01 l 267.3,811.86 c 5.27,16 -6.65,32.47 -23.49,32.47 H 4854.58 c -10.68,0 -20.15,-6.85 -23.5,-17 l -267.3,-811.87 c -5.27,-15.99 6.65,-32.47 23.49,-32.47"
         style="fill:#afafaf;fill-opacity:1;fill-rule:nonzero;stroke:none"
         id="path102" />
      <path
         d="m 4587.38,3737.39 h 42.3 c -16.82,0 -28.7,16.58 -23.5,32.65 l 267.41,811.89 c 3.22,10.13 12.62,16.81 23.5,16.81 h -42.55 c -10.63,0 -20.04,-6.68 -23.5,-16.81 l -267.16,-811.89 c -5.45,-16.07 6.43,-32.65 23.5,-32.65"
         style="fill:#9b9b9b;fill-opacity:1;fill-rule:nonzero;stroke:none"
         id="path104" />
      <path
         d="m 5241.45,4168.16 c 0,53.23 43.14,96.38 96.37,96.38 53.22,0 96.37,-43.15 96.37,-96.38 0,-53.22 -43.15,-96.37 -96.37,-96.37 -53.23,0 -96.37,43.15 -96.37,96.37"
         style="fill:#cecece;fill-opacity:1;fill-rule:nonzero;stroke:none"
         id="path106" />
      <path
         d="M 6909.28,3406.45 H 4047.04 v 180.71 h 2862.24 v -180.71"
         style="fill:#b7cae5;fill-opacity:1;fill-rule:nonzero;stroke:none"
         id="path108" />
      <path
         d="M 4047.04,3406.45 3917.85,154.141 h 77.07 l 234.55,3252.309 h -182.43"
         style="fill:#b7cae5;fill-opacity:1;fill-rule:nonzero;stroke:none"
         id="path110" />
      <path
         d="M 2953.24,3406.45 2824.05,154.141 h 77.07 l 234.55,3252.309 h -182.43"
         style="fill:#92afcc;fill-opacity:1;fill-rule:nonzero;stroke:none"
         id="path112" />
      <path
         d="M 5815.48,3406.45 5944.67,154.141 H 5867.6 L 5633.05,3406.45 h 182.43"
         style="fill:#92afcc;fill-opacity:1;fill-rule:nonzero;stroke:none"
         id="path114" />
      <path
         d="M 6909.28,3406.45 7038.47,154.141 H 6961.4 L 6726.85,3406.45 h 182.43"
         style="fill:#b7cae5;fill-opacity:1;fill-rule:nonzero;stroke:none"
         id="path116" />
      <path
         d="M 6969.83,3742.05 H 3986.48 v -154.89 h 2983.35 v 154.89"
         style="fill:#5693db;fill-opacity:1;fill-rule:nonzero;stroke:none"
         id="path118" />
      <path
         d="m 2953.24,3406.45 h 1093.8 v 180.71 h -1093.8 v -180.71"
         style="fill:#92afcc;fill-opacity:1;fill-rule:nonzero;stroke:none"
         id="path120" />
      <path
         d="M 2887.15,3742.05 H 3986.48 V 3587.16 H 2887.15 v 154.89"
         style="fill:#3177bc;fill-opacity:1;fill-rule:nonzero;stroke:none"
         id="path122" />
      <path
         d="M 6623.07,3742.05 H 6294.3 l -78.22,360.49 h 485.21 l -78.22,-360.49"
         style="fill:#92afcc;fill-opacity:1;fill-rule:nonzero;stroke:none"
         id="path124" />
      <path
         d="m 6588.94,4102.54 h -176.17 l -24.21,251.7 c -6.37,66.27 45.73,123.62 112.3,123.62 v 0 c 66.57,0 118.66,-57.35 112.29,-123.62 l -24.21,-251.7"
         style="fill:#5693db;fill-opacity:1;fill-rule:nonzero;stroke:none"
         id="path126" />
      <path
         d="m 6214.47,4332.86 v 0 c -14.14,-24.43 -3.15,-55.61 23.13,-65.9 44.35,-17.38 111.25,-38.99 168.24,-38.28 14.67,0.17 26.45,12.14 26.45,26.81 v 0 c 0,12.75 -8.91,23.8 -21.43,26.19 -25.65,4.93 -72.18,19.67 -127.7,63.85 -22.07,17.57 -54.56,11.74 -68.69,-12.67"
         style="fill:#5693db;fill-opacity:1;fill-rule:nonzero;stroke:none"
         id="path128" />
      <path
         d="m 7754.77,2004.34 h 1265.87 v 139.51 H 7754.77 v -139.51"
         style="fill:#b7cae5;fill-opacity:1;fill-rule:nonzero;stroke:none"
         id="path130" />
      <path
         d="M 9799.11,2004.34 9927.18,154.141 h -76.4 L 9618.26,2004.34 h 180.85"
         style="fill:#92afcc;fill-opacity:1;fill-rule:nonzero;stroke:none"
         id="path132" />
      <path
         d="M 9020.64,2004.34 9148.71,154.141 h -76.4 L 8839.79,2004.34 h 180.85"
         style="fill:#b7cae5;fill-opacity:1;fill-rule:nonzero;stroke:none"
         id="path134" />
      <path
         d="M 7754.77,2004.34 7626.71,154.141 h 76.39 l 232.52,1850.199 h -180.85"
         style="fill:#b7cae5;fill-opacity:1;fill-rule:nonzero;stroke:none"
         id="path136" />
      <path
         d="M 8457.89,2004.34 8329.81,154.141 h 76.41 l 232.52,1850.199 h -180.85"
         style="fill:#92afcc;fill-opacity:1;fill-rule:nonzero;stroke:none"
         id="path138" />
      <path
         d="m 7693.91,2263.43 h 1387.6 v -119.58 h -1387.6 v 119.58"
         style="fill:#5693db;fill-opacity:1;fill-rule:nonzero;stroke:none"
         id="path140" />
      <path
         d="m 9845.49,2263.43 h -763.98 v -119.58 h 763.98 v 119.58"
         style="fill:#3177bc;fill-opacity:1;fill-rule:nonzero;stroke:none"
         id="path142" />
      <path
         d="m 9799.11,2004.34 h -778.47 v 139.51 h 778.47 v -139.51"
         style="fill:#92afcc;fill-opacity:1;fill-rule:nonzero;stroke:none"
         id="path144" />
      <path
         d="m 9601.86,4282.86 h 133.87 V 2263.43 h -133.87 v 2019.43"
         style="fill:#92afcc;fill-opacity:1;fill-rule:nonzero;stroke:none"
         id="path146" />
      <path
         d="m 9084.76,4282.86 h 133.86 V 2263.43 h -133.86 v 2019.43"
         style="fill:#92afcc;fill-opacity:1;fill-rule:nonzero;stroke:none"
         id="path148" />
      <path
         d="m 8567.65,4282.86 h 133.86 V 2263.43 h -133.86 v 2019.43"
         style="fill:#92afcc;fill-opacity:1;fill-rule:nonzero;stroke:none"
         id="path150" />
      <path
         d="m 8556.63,4676.21 c 382.03,-61.46 780.05,-57.76 1191.89,2.28 51.14,7.45 96.97,-32.23 96.97,-83.9 v -642.03 c 0,-41.68 -30.31,-76.85 -71.4,-83.83 -414.93,-70.46 -829.87,-70.46 -1244.8,0 -41.09,6.98 -71.4,42.15 -71.4,83.83 v 639.98 c 0,52.42 46.98,92 98.74,83.67"
         style="fill:#b7cae5;fill-opacity:1;fill-rule:nonzero;stroke:none"
         id="path152" />
      <path
         d="m 8340.44,382.609 -202.26,1215.021 475.5,-94.37 31.96,-1038.998 11.76,-162.25 h -316.96 v 80.597"
         style="fill:#fdbeb7;fill-opacity:1;fill-rule:nonzero;stroke:none"
         id="path154" />
      <path
         d="m 8645.64,464.262 82.21,-135.321 c 24.57,-87.789 -41.42,-174.8 -132.6,-174.8 h -734.3 c -22.85,0 -43.48,13.66 -52.43,34.672 v 0 c -12.78,30.046 2.26,64.679 32.95,75.839 l 498.97,169.289 c 0,0 270.54,-173.742 305.2,30.321"
         style="fill:#46345e;fill-opacity:1;fill-rule:nonzero;stroke:none"
         id="path156" />
      <path
         d="m 7516.58,382.609 -112.5,1203.031 475.5,-94.38 -57.78,-1026.998 11.75,-162.25 h -316.97 v 80.597"
         style="fill:#fdbeb7;fill-opacity:1;fill-rule:nonzero;stroke:none"
         id="path158" />
      <path
         d="M 7821.8,464.262 7904,328.941 c 24.57,-87.789 -41.43,-174.8 -132.59,-174.8 h -734.32 c -22.84,0 -43.47,13.66 -52.41,34.672 v 0 c -12.79,30.046 2.25,64.679 32.94,75.839 l 498.96,169.289 c 0,0 270.55,-173.742 305.22,30.321"
         style="fill:#46345e;fill-opacity:1;fill-rule:nonzero;stroke:none"
         id="path160" />
      <path
         d="m 8174.37,6080.19 c 0,0 -99.99,-70.11 -43.27,-273.4 56.71,-203.3 58.2,-381.81 26.68,-593.37 -31.51,-211.56 63.39,-477.85 536.12,-527.57 472.71,-49.7 882.07,194.64 750.54,476.77 -131.52,282.13 -251.96,420.97 -251.96,420.97 0,0 45.15,44.71 25.62,89.22 -19.53,44.51 -80.78,76.47 -80.78,76.47 0,0 -61.66,545.03 -634,523.72 0,0 -282.21,-32.05 -328.95,-192.81"
         style="fill:#46345e;fill-opacity:1;fill-rule:nonzero;stroke:none"
         id="path162" />
      <path
         d="m 7971.38,3897.35 c 45.75,-24.22 141.9,-34.99 237.07,-31.56 37.18,0.97 74.13,4.4 108.14,10.02 l 24.72,369.45 1.46,21.29 11.01,17.61 -83.18,598.45 -70.95,-21.78 c -52.61,-16.15 -96.16,-52.85 -121.12,-101.78 l -107.15,-861.7"
         style="fill:#f99a3d;fill-opacity:1;fill-rule:nonzero;stroke:none"
         id="path164" />
      <path
         d="m 8201.11,4175.29 c 18.84,-115.48 13.69,-240.27 7.34,-309.5 37.18,0.97 74.13,4.4 108.14,10.02 l 24.72,369.45 -32.06,163.68 c 0,0 -129.18,-103.5 -108.14,-233.65"
         style="fill:#dd7619;fill-opacity:1;fill-rule:nonzero;stroke:none"
         id="path166" />
      <path
         d="m 9137.32,4980.91 328.13,-99.87 62.96,-729.53 -189.16,-937.36 h -941.98 l -168.78,932.29 c -11.02,60.83 -2.17,123.59 25.23,179.02 l 55.46,112.2 -38.5,444.86 280.55,92.35 586.09,6.04"
         style="fill:#f99a3d;fill-opacity:1;fill-rule:nonzero;stroke:none"
         id="path168" />
      <path
         d="m 8250.45,5749.48 c 0,0 10.86,-191.97 80.95,-376.97 47.47,-125.43 173.81,-202.81 307.12,-188.56 l -15.49,-174.64 -71.84,-34.47 c 0,0 33.39,-108.28 84.76,-223.77 40.35,-90.56 91.71,-185.42 146.89,-235.87 0,0 105.88,75.22 216.56,226.5 47.81,65.46 96.53,145.15 137.94,239.19 l -88.81,45.4 -97.59,419.54 c 0,0 103.81,59.9 97.59,154.35 -6.21,94.45 -89.89,113.83 -138.52,65.04 -11.02,-23.61 -34.46,-37.95 -59.41,-37.95 -5.87,0 -11.92,0.83 -17.81,2.49 -133.55,37.94 -474.71,149.54 -559.8,319.13 0,0 20.21,-125.43 -22.54,-199.41"
         style="fill:#fdbeb7;fill-opacity:1;fill-rule:nonzero;stroke:none"
         id="path170" />
      <path
         d="m 8593.64,5595.05 c -1.39,-15.29 9.87,-28.83 25.16,-30.23 15.3,-1.4 28.83,9.86 30.23,25.16 1.4,15.29 -9.86,28.83 -25.15,30.23 -15.31,1.4 -28.83,-9.86 -30.24,-25.16"
         style="fill:#46345e;fill-opacity:1;fill-rule:nonzero;stroke:none"
         id="path172" />
      <path
         d="m 8379.26,5588.01 c -1.4,-15.3 9.86,-28.83 25.15,-30.23 15.31,-1.4 28.83,9.86 30.24,25.16 1.39,15.29 -9.87,28.83 -25.16,30.23 -15.3,1.4 -28.83,-9.87 -30.23,-25.16"
         style="fill:#46345e;fill-opacity:1;fill-rule:nonzero;stroke:none"
         id="path174" />
      <path
         d="m 8941.79,5511.83 c 3.38,0 6.55,2.08 7.76,5.43 3.69,10.16 5.53,31.89 -13.94,41.52 -9.82,4.85 -20.85,0.86 -29.61,-4.53 12.03,94.15 80.79,99.76 83.9,99.96 4.54,0.3 8.02,4.22 7.74,8.77 -0.28,4.56 -4.21,8.03 -8.73,7.77 -0.95,-0.06 -95.72,-6.97 -101.04,-134.69 -0.15,-3.44 1.87,-6.61 5.04,-7.96 3.16,-1.35 6.84,-0.6 9.23,1.89 7.33,7.64 20.53,16.75 26.13,13.94 10.82,-5.36 6.25,-19.46 5.69,-21.05 -1.51,-4.3 0.74,-9.03 5.03,-10.57 0.92,-0.33 1.87,-0.48 2.8,-0.48"
         style="fill:#46345e;fill-opacity:1;fill-rule:nonzero;stroke:none"
         id="path176" />
      <path
         d="m 8710.37,5668 c 2.96,0 5.8,1.57 7.3,4.35 2.17,4.03 0.67,9.06 -3.35,11.23 -3.26,1.75 -80.13,42.28 -150.27,3.55 -4,-2.21 -5.46,-7.25 -3.24,-11.26 2.2,-4 7.24,-5.47 11.25,-3.25 62.3,34.43 133.67,-3.26 134.38,-3.63 1.26,-0.67 2.6,-0.99 3.93,-0.99"
         style="fill:#46345e;fill-opacity:1;fill-rule:nonzero;stroke:none"
         id="path178" />
      <path
         d="m 8459.43,5667.75 c 2.79,0 5.51,1.4 7.07,3.95 2.4,3.91 1.17,9.01 -2.73,11.4 -68.3,41.88 -146.96,4.87 -150.26,3.27 -4.13,-1.98 -5.85,-6.93 -3.87,-11.05 1.97,-4.13 6.96,-5.87 11.04,-3.88 0.75,0.35 73.92,34.65 134.43,-2.47 1.35,-0.83 2.85,-1.22 4.32,-1.22"
         style="fill:#46345e;fill-opacity:1;fill-rule:nonzero;stroke:none"
         id="path180" />
      <path
         d="m 8545.86,5331.8 c 62.7,0 101.49,47.01 103.26,49.19 2.87,3.55 2.31,8.76 -1.22,11.64 -3.55,2.87 -8.76,2.34 -11.65,-1.21 -0.42,-0.51 -42.18,-50.81 -105.82,-41.97 -4.52,0.7 -8.71,-2.53 -9.35,-7.06 -0.63,-4.53 2.53,-8.71 7.06,-9.34 6.1,-0.85 12.01,-1.25 17.72,-1.25"
         style="fill:#46345e;fill-opacity:1;fill-rule:nonzero;stroke:none"
         id="path182" />
      <path
         d="m 8864.6,5346.78 c 0,-66.66 54.23,-120.89 120.89,-120.89 66.66,0 120.89,54.23 120.89,120.89 0,66.66 -54.23,120.89 -120.89,120.89 -66.66,0 -120.89,-54.23 -120.89,-120.89 z m -16.57,0 c 0,75.8 61.67,137.46 137.46,137.46 75.79,0 137.46,-61.66 137.46,-137.46 0,-75.79 -61.67,-137.46 -137.46,-137.46 -75.79,0 -137.46,61.67 -137.46,137.46"
         style="fill:#fff5f5;fill-opacity:1;fill-rule:nonzero;stroke:none"
         id="path184" />
      <path
         d="m 8638.53,5183.98 c 0,0 103.66,43.13 177.23,111.4 0,0 -59.5,-149.18 -184.53,-193.66 l 7.3,82.26"
         style="fill:#ec6c7d;fill-opacity:1;fill-rule:nonzero;stroke:none"
         id="path186" />
      <path
         d="m 8635.95,4751.07 c 40.35,-90.56 91.71,-185.42 146.89,-235.87 0,0 105.88,75.22 216.56,226.5 -92.2,-11.59 -231.06,-19.63 -363.45,9.37"
         style="fill:#fff5f5;fill-opacity:1;fill-rule:nonzero;stroke:none"
         id="path188" />
      <path
         d="m 9442.94,4169.38 -17.31,-527.13 102.78,514.02 z"
         style="fill:#dd7619;fill-opacity:1;fill-rule:nonzero;stroke:none"
         id="path190" />
      <path
         d="m 9465.45,4881.04 26.06,-8.45 c 70.18,-22.77 127.22,-74.86 155.33,-143.07 60.46,-146.74 154.5,-427.96 217.02,-832.77 l -335.45,-128.12 -149.34,462.64 86.38,649.77"
         style="fill:#f99a3d;fill-opacity:1;fill-rule:nonzero;stroke:none"
         id="path192" />
      <path
         d="m 9868.12,3915.07 v 0 C 9866.2,3795.43 9752.6,3699.88 9614.6,3701.82 l -873.38,1.95 -23.12,230.92 694.21,142.83 228.29,19.15 c 123.11,10.34 229.25,-74.38 227.52,-181.6"
         style="fill:#fdbeb7;fill-opacity:1;fill-rule:nonzero;stroke:none"
         id="path194" />
      <path
         d="m 8724.22,3933.61 -241.03,82.13 c -19.22,6.55 -40.89,4.71 -58.27,-4.93 l -183.37,-101.67 c -13.91,-7.71 -20.55,-22.28 -16.49,-36.15 l 36.74,-125.36 c 10.01,-34.15 49.64,-55.11 89.24,-47.19 l 114.69,22.93 v 0 c 17.65,-34.89 59.58,-55.64 103.21,-51.07 l 172.28,31.47 -17,229.84"
         style="fill:#fdbeb7;fill-opacity:1;fill-rule:nonzero;stroke:none"
         id="path196" />
      <path
         d="m 9339.25,3214.15 81.65,-147.64 c 59.87,-108.28 91.29,-229.99 91.29,-353.73 v -57.44 c 0,-216.81 -175.76,-392.56 -392.55,-392.56 h -504.6 c 0,0 117.99,-890.59 144.67,-1292.319 0,0 -167.68,142.209 -637.49,24.25 -469.81,-117.969 -797.84,39.399 -797.84,39.399 v 1631.61 c 0,153.08 102.72,287.13 250.54,326.94 l 822.35,221.49 h 941.98"
         style="fill:#46345e;fill-opacity:1;fill-rule:nonzero;stroke:none"
         id="path198" />
      <path
         d="m 7242.96,4340.63 81.91,195.28 839.72,-474.8 c 111.72,-80.05 114.97,-245.05 6.49,-329.45 v 0 c -75.65,-58.85 -166.82,-38.15 -236.76,41.43 l -691.36,567.54"
         style="fill:#fdbeb7;fill-opacity:1;fill-rule:nonzero;stroke:none"
         id="path200" />
      <path
         d="m 6913.44,4623.58 28.61,-0.77 110.28,-7.99 35.85,0.44 57.55,24.91 c 22.26,9.73 48.06,6.04 66.83,-9.29 l 112.31,-94.97 -0.29,-201.61 -77.47,-40.58 -158.88,17.2 -117.24,16.33 c -23.1,3.21 -41.53,20.86 -45.76,43.79 l -40.43,219.05 c -3.26,17.73 10.62,33.97 28.64,33.49"
         style="fill:#fdbeb7;fill-opacity:1;fill-rule:nonzero;stroke:none"
         id="path202" />
      <path
         d="M 10630.4,3770.38 H 9162.56 v -60.19 h 1467.84 v 60.19"
         style="fill:#b7cae5;fill-opacity:1;fill-rule:nonzero;stroke:none"
         id="path204" />
      <path
         d="m 9568.37,3770.38 h -405.81 v -60.19 h 405.81 v 60.19"
         style="fill:#92afcc;fill-opacity:1;fill-rule:nonzero;stroke:none"
         id="path206" />
      <path
         d="M 12078.3,3377.56 H 9241.49 v 179.1 h 2836.81 v -179.1"
         style="fill:#b7cae5;fill-opacity:1;fill-rule:nonzero;stroke:none"
         id="path208" />
      <path
         d="M 9241.49,3377.56 9113.46,154.141 h 76.37 L 9422.3,3377.56 h -180.81"
         style="fill:#b7cae5;fill-opacity:1;fill-rule:nonzero;stroke:none"
         id="path210" />
      <path
         d="M 8157.41,3377.56 8029.37,154.141 h 76.38 l 232.47,3223.419 h -180.81"
         style="fill:#92afcc;fill-opacity:1;fill-rule:nonzero;stroke:none"
         id="path212" />
      <path
         d="m 10994.2,3377.56 128.1,-3223.419 h -76.4 l -232.5,3223.419 h 180.8"
         style="fill:#92afcc;fill-opacity:1;fill-rule:nonzero;stroke:none"
         id="path214" />
      <path
         d="m 12078.3,3377.56 128.1,-3223.419 h -76.4 l -232.5,3223.419 h 180.8"
         style="fill:#b7cae5;fill-opacity:1;fill-rule:nonzero;stroke:none"
         id="path216" />
      <path
         d="M 12138.3,3710.19 H 9181.48 v -153.53 h 2956.82 v 153.53"
         style="fill:#5693db;fill-opacity:1;fill-rule:nonzero;stroke:none"
         id="path218" />
      <path
         d="m 8157.41,3377.56 h 1084.08 v 179.1 H 8157.41 v -179.1"
         style="fill:#92afcc;fill-opacity:1;fill-rule:nonzero;stroke:none"
         id="path220" />
      <path
         d="M 8091.91,3710.19 H 9181.48 V 3556.66 H 8091.91 v 153.53"
         style="fill:#3177bc;fill-opacity:1;fill-rule:nonzero;stroke:none"
         id="path222" />
      <path
         d="m 8929.37,3710.23 h -175.06 c -68.63,60.38 -89.18,196.63 -85.63,371.19 h 346.33 c 3.54,-174.56 -17,-310.81 -85.64,-371.19"
         style="fill:#92afcc;fill-opacity:1;fill-rule:nonzero;stroke:none"
         id="path224" />
      <path
         d="m 8739.27,3741.95 c -49.09,0 -89.79,16.85 -120.99,50.09 -76.47,81.52 -67.74,233.07 -67.32,239.49 0.57,8.93 7.98,15.9 16.93,15.9 h 122.93 c 9.38,0 16.97,-7.6 16.97,-16.98 0,-9.38 -7.59,-16.98 -16.97,-16.98 h -106.34 c 0,-39.25 5.43,-141.62 58.62,-198.26 24.85,-26.46 56.3,-39.32 96.17,-39.32 9.38,0 16.98,-7.59 16.98,-16.97 0,-9.38 -7.6,-16.97 -16.98,-16.97"
         style="fill:#92afcc;fill-opacity:1;fill-rule:nonzero;stroke:none"
         id="path226" />
      <path
         d="M 11897.5,5067.78 V 3744.17 c 0,-18.83 -15.3,-33.94 -33.9,-33.94 h -1169.7 c -18.8,0 -33.9,15.11 -33.9,33.94 v 763.48 c 231.8,231.86 362,362.05 594.1,594.07 h 609.5 c 18.6,0 33.9,-15.27 33.9,-33.94"
         style="fill:#ea8428;fill-opacity:1;fill-rule:nonzero;stroke:none"
         id="path228" />
      <path
         d="M 11897.5,5067.78 V 3744.17 c 0,-18.83 -15.3,-33.94 -33.9,-33.94 h -376.3 v 1391.49 h 376.3 c 18.6,0 33.9,-15.27 33.9,-33.94"
         style="fill:#f99a3d;fill-opacity:1;fill-rule:nonzero;stroke:none"
         id="path230" />
      <path
         d="M 10984.8,3999.58 H 9173.46 c -33.14,0 -60,26.86 -60,60 v 982.07 c 0,33.14 26.86,60 60,60 h 1811.34 c 33.1,0 60,-26.86 60,-60 v -982.07 c 0,-33.14 -26.9,-60 -60,-60"
         style="fill:#b7cae5;fill-opacity:1;fill-rule:nonzero;stroke:none"
         id="path232" />
      <path
         d="m 10115.7,4316.02 h -73.1 c -104.89,0 -189.89,-85.01 -189.89,-189.86 v -415.97 h 452.79 v 415.97 c 0,104.85 -85,189.86 -189.8,189.86"
         style="fill:#92afcc;fill-opacity:1;fill-rule:nonzero;stroke:none"
         id="path234" />
      <path
         d="M 5879.22,4893.57 H 4717.18 c -49.71,0 -90,40.3 -90,90 V 6482.5 c 0,49.71 40.29,90 90,90 h 1162.04 c 49.71,0 90,-40.29 90,-90 V 4983.57 c 0,-49.7 -40.29,-90 -90,-90"
         style="fill:#d7e6f7;fill-opacity:1;fill-rule:nonzero;stroke:none"
         id="path236" />
      <path
         d="m 5307.53,6258.5 c -198.38,0 -359.77,-161.39 -359.77,-359.77 0,-198.37 161.39,-359.76 359.77,-359.76 198.38,0 359.76,161.39 359.76,359.76 0,198.38 -161.38,359.77 -359.76,359.77 z m 0,-745.98 c -212.96,0 -386.22,173.26 -386.22,386.21 0,212.96 173.26,386.23 386.22,386.23 212.96,0 386.22,-173.27 386.22,-386.23 0,-212.95 -173.26,-386.21 -386.22,-386.21"
         style="fill:#b7cae5;fill-opacity:1;fill-rule:nonzero;stroke:none"
         id="path238" />
      <path
         d="m 5307.53,6106.91 c -114.79,0 -208.17,-93.39 -208.17,-208.18 0,-114.79 93.38,-208.17 208.17,-208.17 114.78,0 208.17,93.38 208.17,208.17 0,114.79 -93.39,208.18 -208.17,208.18 z m 0,-442.8 c -129.37,0 -234.63,105.25 -234.63,234.62 0,129.38 105.26,234.63 234.63,234.63 129.37,0 234.62,-105.25 234.62,-234.63 0,-129.37 -105.25,-234.62 -234.62,-234.62"
         style="fill:#b7cae5;fill-opacity:1;fill-rule:nonzero;stroke:none"
         id="path240" />
      <path
         d="m 5307.53,5503.7 c -217.83,0 -395.04,177.21 -395.04,395.03 0,12.18 9.87,22.05 22.05,22.05 12.17,0 22.05,-9.87 22.05,-22.05 0,-193.5 157.43,-350.94 350.94,-350.94 193.51,0 350.95,157.44 350.95,350.94 0,193.52 -157.44,350.95 -350.95,350.95 -12.18,0 -22.05,9.87 -22.05,22.05 0,12.18 9.87,22.04 22.05,22.04 217.83,0 395.04,-177.21 395.04,-395.04 0,-217.82 -177.21,-395.03 -395.04,-395.03"
         style="fill:#5693db;fill-opacity:1;fill-rule:nonzero;stroke:none"
         id="path242" />
      <path
         d="m 4975.87,5328.49 c 0,-24.78 -20.09,-44.86 -44.86,-44.86 -24.78,0 -44.86,20.08 -44.86,44.86 0,24.78 20.08,44.86 44.86,44.86 24.77,0 44.86,-20.08 44.86,-44.86"
         style="fill:#5693db;fill-opacity:1;fill-rule:nonzero;stroke:none"
         id="path244" />
      <path
         d="m 5307.53,5659.7 c -131.81,0 -239.04,107.23 -239.04,239.03 0,49.27 14.87,96.59 43.01,136.84 5.58,7.96 16.58,9.93 24.56,4.35 7.98,-5.58 9.93,-16.58 4.35,-24.56 -23.97,-34.3 -36.65,-74.62 -36.65,-116.63 0,-112.35 91.42,-203.76 203.77,-203.76 112.35,0 203.76,91.41 203.76,203.76 0,112.36 -91.41,203.77 -203.76,203.77 -9.74,0 -17.64,7.89 -17.64,17.64 0,9.74 7.9,17.63 17.64,17.63 131.8,0 239.03,-107.23 239.03,-239.04 0,-131.8 -107.23,-239.03 -239.03,-239.03"
         style="fill:#f99a3d;fill-opacity:1;fill-rule:nonzero;stroke:none"
         id="path246" />
      <path
         d="M 5700.18,5373.35 H 5057.1 c -15.86,0 -28.72,-12.86 -28.72,-28.73 v -32.26 c 0,-15.87 12.86,-28.73 28.72,-28.73 h 643.08 c 15.86,0 28.73,12.86 28.73,28.73 v 32.26 c 0,15.87 -12.87,28.73 -28.73,28.73"
         style="fill:#b7cae5;fill-opacity:1;fill-rule:nonzero;stroke:none"
         id="path248" />
      <path
         d="m 4975.87,5177.19 c 0,-24.77 -20.09,-44.86 -44.86,-44.86 -24.78,0 -44.86,20.09 -44.86,44.86 0,24.78 20.08,44.86 44.86,44.86 24.77,0 44.86,-20.08 44.86,-44.86"
         style="fill:#f99a3d;fill-opacity:1;fill-rule:nonzero;stroke:none"
         id="path250" />
      <path
         d="M 5700.18,5222.05 H 5057.1 c -15.86,0 -28.72,-12.86 -28.72,-28.73 v -32.26 c 0,-15.87 12.86,-28.73 28.72,-28.73 h 643.08 c 15.86,0 28.73,12.86 28.73,28.73 v 32.26 c 0,15.87 -12.87,28.73 -28.73,28.73"
         style="fill:#b7cae5;fill-opacity:1;fill-rule:nonzero;stroke:none"
         id="path252" />
      <path
         d="M 7452.26,4893.57 H 6290.21 c -49.7,0 -90,40.3 -90,90 V 6482.5 c 0,49.71 40.3,90 90,90 h 1162.05 c 49.7,0 90,-40.29 90,-90 V 4983.57 c 0,-49.7 -40.3,-90 -90,-90"
         style="fill:#d7e6f7;fill-opacity:1;fill-rule:nonzero;stroke:none"
         id="path254" />
      <path
         d="m 7319.85,5351.15 h -897.23 c -15.87,0 -28.73,-12.86 -28.73,-28.73 v -32.26 c 0,-15.87 12.86,-28.73 28.73,-28.73 h 897.23 c 15.86,0 28.72,12.86 28.72,28.73 v 32.26 c 0,15.87 -12.86,28.73 -28.72,28.73"
         style="fill:#b7cae5;fill-opacity:1;fill-rule:nonzero;stroke:none"
         id="path256" />
      <path
         d="m 6842.51,5182.67 h -419.89 c -15.87,0 -28.73,-12.86 -28.73,-28.73 v -32.26 c 0,-15.87 12.86,-28.73 28.73,-28.73 h 419.89 c 15.86,0 28.72,12.86 28.72,28.73 v 32.26 c 0,15.87 -12.86,28.73 -28.72,28.73"
         style="fill:#b7cae5;fill-opacity:1;fill-rule:nonzero;stroke:none"
         id="path258" />
      <path
         d="m 6792.79,5492.51 c -88.71,0 -97.57,176.74 -107.84,381.39 -4.12,82.14 -8.01,159.73 -17.49,217.88 -13.08,80.15 -30.84,81.08 -31.6,81.08 -34.17,0 -84.26,-83.57 -122.36,-318.1 -6.64,-40.78 -41.48,-70.39 -82.86,-70.39 -11.31,0 -20.48,9.17 -20.48,20.49 0,11.31 9.17,20.48 20.48,20.48 21.19,0 39.03,15.14 42.42,36 57.27,352.48 136.7,352.48 162.8,352.48 73.07,0 80.55,-149.1 90.01,-337.87 6.84,-136.38 17.18,-342.47 66.92,-342.47 49.48,0 65.95,137.74 79.18,248.41 16.56,138.61 32.21,269.53 110.66,269.53 87.06,0 96.64,-115.54 105.1,-217.47 3.5,-42.25 9.95,-120.02 25.43,-123.67 23.77,16.42 49.49,167.21 66.58,267.39 37.96,222.61 64.65,359.05 132.09,359.05 11.3,0 20.47,-9.17 20.47,-20.48 0,-11.31 -9.17,-20.48 -20.47,-20.48 -0.82,0 -20.29,-1.07 -45.7,-93.84 -17.48,-63.83 -31.98,-148.88 -46.01,-231.14 -33.8,-198.18 -53.86,-301.6 -105.81,-301.6 -54.02,0 -60.22,74.79 -67.41,161.38 -6.64,80.15 -14.92,179.89 -64.27,179.89 -42.09,0 -57.55,-129.43 -69.98,-233.42 -17.49,-146.32 -34.01,-284.52 -119.86,-284.52"
         style="fill:#5693db;fill-opacity:1;fill-rule:nonzero;stroke:none"
         id="path260" />
      <path
         d="m 6673.19,6193.34 c 0,20.61 -16.71,37.32 -37.32,37.32 -20.62,0 -37.33,-16.71 -37.33,-37.32 0,-20.62 16.71,-37.33 37.33,-37.33 20.61,0 37.32,16.71 37.32,37.33"
         style="fill:#f99a3d;fill-opacity:1;fill-rule:nonzero;stroke:none"
         id="path262" />
      <path
         d="m 6834.5,5512.99 c 0,20.61 -16.71,37.32 -37.32,37.32 -20.62,0 -37.33,-16.71 -37.33,-37.32 0,-20.61 16.71,-37.32 37.33,-37.32 20.61,0 37.32,16.71 37.32,37.32"
         style="fill:#f99a3d;fill-opacity:1;fill-rule:nonzero;stroke:none"
         id="path264" />
      <path
         d="m 7020.49,6029.83 c 0,20.61 -16.71,37.32 -37.32,37.32 -20.61,0 -37.32,-16.71 -37.32,-37.32 0,-20.61 16.71,-37.32 37.32,-37.32 20.61,0 37.32,16.71 37.32,37.32"
         style="fill:#f99a3d;fill-opacity:1;fill-rule:nonzero;stroke:none"
         id="path266" />
      <path
         d="m 7154.36,5695.72 c 0,20.61 -16.7,37.32 -37.31,37.32 -20.62,0 -37.32,-16.71 -37.32,-37.32 0,-20.61 16.7,-37.32 37.32,-37.32 20.61,0 37.31,16.71 37.31,37.32"
         style="fill:#f99a3d;fill-opacity:1;fill-rule:nonzero;stroke:none"
         id="path268" />
      <path
         d="m 7358.48,6316.24 c 0,20.61 -16.71,37.32 -37.33,37.32 -20.61,0 -37.31,-16.71 -37.31,-37.32 0,-20.62 16.7,-37.32 37.31,-37.32 20.62,0 37.33,16.7 37.33,37.32"
         style="fill:#f99a3d;fill-opacity:1;fill-rule:nonzero;stroke:none"
         id="path270" />
      <path
         d="m 10560.1,6192.11 v -761.48 c 0,-15.9 -12.9,-28.74 -28.8,-28.74 h -554.85 c -15.9,0 -28.74,12.84 -28.74,28.74 v 761.48 c 0,15.9 12.84,28.73 28.74,28.73 h 554.85 c 15.9,0 28.8,-12.83 28.8,-28.73"
         style="fill:#b7cae5;fill-opacity:1;fill-rule:nonzero;stroke:none"
         id="path272" />
      <path
         d="m 10560.1,6192.11 v -122.13 h -612.39 v 122.13 c 0,15.9 12.84,28.73 28.74,28.73 h 554.85 c 15.9,0 28.8,-12.83 28.8,-28.73"
         style="fill:#5693db;fill-opacity:1;fill-rule:nonzero;stroke:none"
         id="path274" />
      <path
         d="m 10102.4,6301.74 v 0 c -19.7,0 -35.7,-15.96 -35.7,-35.65 v -90.5 c 0,-19.68 16,-35.64 35.7,-35.64 v 0 c 19.7,0 35.6,15.96 35.6,35.64 v 90.5 c 0,19.69 -15.9,35.65 -35.6,35.65"
         style="fill:#b7cae5;fill-opacity:1;fill-rule:nonzero;stroke:none"
         id="path276" />
      <path
         d="m 10405.4,6301.74 v 0 c -19.7,0 -35.7,-15.96 -35.7,-35.65 v -90.5 c 0,-19.68 16,-35.64 35.7,-35.64 v 0 c 19.7,0 35.6,15.96 35.6,35.64 v 90.5 c 0,19.69 -15.9,35.65 -35.6,35.65"
         style="fill:#b7cae5;fill-opacity:1;fill-rule:nonzero;stroke:none"
         id="path278" />
      <path
         d="m 10138.4,5604.03 c -7.3,0 -14.9,0.48 -22.6,1.42 -7.7,0.96 -15,2.18 -21.9,3.67 -7,1.48 -13.3,3.11 -19,4.87 -5.7,1.77 -10,3.47 -13,5.09 l 9.8,41.88 c 5.7,-2.71 13.9,-5.76 24.8,-9.15 10.8,-3.39 24.3,-5.08 40.3,-5.08 21.4,0 36.8,4.13 46.3,12.4 9.5,8.27 14.2,19.32 14.2,33.14 0,8.95 -1.8,16.41 -5.4,22.37 -3.7,5.96 -8.7,10.77 -15.1,14.43 -6.4,3.67 -13.7,6.24 -22,7.73 -8.2,1.49 -17,2.24 -26.2,2.24 h -16.7 v 39.85 h 20.4 c 6.2,0 12.5,0.61 18.9,1.83 6.3,1.22 12.1,3.39 17.3,6.51 5.1,3.11 9.3,7.25 12.6,12.4 3.2,5.15 4.9,11.79 4.9,19.92 0,6.51 -1.3,12.07 -3.7,16.68 -2.4,4.6 -5.6,8.4 -9.6,11.38 -3.9,2.98 -8.4,5.15 -13.6,6.51 -5.1,1.35 -10.6,2.03 -16.2,2.03 -12.2,0 -23.1,-1.83 -32.6,-5.49 -9.5,-3.65 -17.9,-7.79 -25.2,-12.4 l -17.9,36.6 c 3.8,2.44 8.4,5.01 13.8,7.72 5.5,2.71 11.5,5.29 18.1,7.73 6.7,2.44 13.8,4.4 21.4,5.9 7.6,1.48 15.6,2.23 24,2.23 15.7,0 29.3,-1.9 40.6,-5.69 11.4,-3.8 20.8,-9.15 28.3,-16.07 7.5,-6.91 13,-15.04 16.7,-24.39 3.6,-9.35 5.5,-19.59 5.5,-30.7 0,-13.02 -3.6,-24.68 -10.8,-34.98 -7.2,-10.3 -16.5,-18.16 -27.9,-23.58 14.7,-5.15 26.8,-13.69 36.4,-25.62 9.6,-11.93 14.5,-27.24 14.5,-45.95 0,-12.47 -2.2,-24.06 -6.5,-34.77 -4.4,-10.71 -11,-19.92 -20,-27.65 -8.9,-7.72 -20.2,-13.83 -33.9,-18.3 -13.7,-4.47 -30,-6.71 -49,-6.71"
         style="fill:#5693db;fill-opacity:1;fill-rule:nonzero;stroke:none"
         id="path280" />
      <path
         d="m 10436,5751.24 c 0,14.64 -0.8,28.32 -2.4,41.07 -1.6,12.74 -4.3,23.79 -7.9,33.14 -3.7,9.35 -8.5,16.74 -14.5,22.16 -5.9,5.42 -13.4,8.14 -22.3,8.14 -9,0 -16.5,-2.72 -22.6,-8.14 -6.1,-5.42 -11,-12.81 -14.6,-22.16 -3.7,-9.35 -6.3,-20.4 -7.8,-33.14 -1.5,-12.75 -2.2,-26.43 -2.2,-41.07 0,-14.64 0.7,-28.34 2.2,-41.07 1.5,-12.75 4.1,-23.79 7.8,-33.14 3.6,-9.36 8.5,-16.75 14.6,-22.17 6.1,-5.43 13.6,-8.13 22.6,-8.13 8.9,0 16.4,2.7 22.3,8.13 6,5.42 10.8,12.81 14.5,22.17 3.6,9.35 6.3,20.39 7.9,33.14 1.6,12.73 2.4,26.43 2.4,41.07 z m 50.9,0 c 0,-47.45 -8.7,-83.84 -26.1,-109.19 -17.3,-25.35 -41.3,-38.02 -71.9,-38.02 -30.7,0 -54.7,12.67 -72,38.02 -17.4,25.35 -26,61.74 -26,109.19 0,23.58 2.2,44.53 6.7,62.82 4.4,18.31 11,33.68 19.5,46.16 8.5,12.46 18.8,21.96 30.9,28.47 12.1,6.5 25.7,9.75 40.9,9.75 30.6,0 54.6,-12.67 71.9,-38.02 17.4,-25.35 26.1,-61.74 26.1,-109.18"
         style="fill:#5693db;fill-opacity:1;fill-rule:nonzero;stroke:none"
         id="path282" />
    </g>
  </g>
</svg>
