<svg xmlns="http://www.w3.org/2000/svg" width="23.174" height="4.485" viewBox="0 0 239.174 40.485"><path d="M240.925,552.106h8.34v39.823h-8.34ZM282.8,577.721c0,.666-.054,1.445-.109,2.231H262.23a6.842,6.842,0,0,0,7.189,5.846,9.57,9.57,0,0,0,7.131-3.062l4.773,4.291a14.609,14.609,0,0,1-12.017,5.565c-8.831,0-15.361-6.292-15.361-15.429v-.113c0-8.528,5.98-15.546,14.536-15.546,9.824,0,14.323,7.745,14.323,16.217m-8.12-3.066c-.491-3.789-2.689-6.355-6.2-6.355-3.45,0-5.7,2.508-6.36,6.355Zm-38.5,3.066c0,.666-.055,1.445-.11,2.231H215.606A6.846,6.846,0,0,0,222.8,585.8a9.563,9.563,0,0,0,7.13-3.062l4.774,4.291a14.606,14.606,0,0,1-12.017,5.565c-8.835,0-15.359-6.292-15.359-15.429v-.113c0-8.528,5.98-15.546,14.538-15.546,9.819,0,14.319,7.745,14.319,16.217m-8.121-3.066c-.49-3.789-2.691-6.355-6.2-6.355-3.457,0-5.706,2.508-6.365,6.355ZM197.7,554.424h-8.337v7.638h-3.51V569.3h3.51v14.155c0,6.912,3.457,8.972,8.559,8.972A12.122,12.122,0,0,0,204.5,590.7v-6.8a8.4,8.4,0,0,1-4.116,1.06c-1.864,0-2.692-.946-2.692-2.9V569.3h6.916v-7.239H197.7Zm124.551,7.08a12.049,12.049,0,0,0-9.658,4.735A8.785,8.785,0,0,0,304.3,561.5c-4.221,0-6.745,2.285-8.668,4.793v-4.234H287.3v29.866h8.339v-16.66c0-4.012,1.923-6.076,5.05-6.076s4.879,2.064,4.879,6.076v16.66h8.344v-16.66c0-4.012,1.918-6.076,5.044-6.076s4.885,2.064,4.885,6.076v16.66h8.338V572.476c0-7.185-3.73-10.973-9.928-10.973m92.793,0c-4.228,0-6.7,2.285-8.62,4.793v-14.19h-8.336v39.822h8.336v-16.66c0-4.012,2.031-6.076,5.213-6.076s5.049,2.064,5.049,6.076v16.66h8.34V572.59c0-6.853-3.676-11.087-9.982-11.087m-32.089,23.791c-4.552,0-7.461-3.673-7.461-8.245v-.112c0-4.4,2.964-8.136,7.134-8.136,2.965,0,4.826,1.282,6.691,3.288l5.1-5.573c-2.742-3.115-6.2-5.014-11.741-5.014a15.217,15.217,0,0,0-15.418,15.546v.109a15.13,15.13,0,0,0,15.311,15.433,14.708,14.708,0,0,0,12.012-5.453l-4.881-5.02c-2.031,1.955-3.949,3.177-6.75,3.177m-22.912-20.223c2.2,2.224,3.185,5.519,3.185,9.526v17.33h-8.065V588.7a11.211,11.211,0,0,1-8.889,3.786c-5.54,0-10.1-3.236-10.1-9.136v-.109c0-6.523,4.885-9.529,11.853-9.529a20.739,20.739,0,0,1,7.186,1.222v-.5c0-3.509-2.135-5.46-6.31-5.46a21.3,21.3,0,0,0-8.118,1.62l-2.088-6.465a25.615,25.615,0,0,1,11.413-2.4c4.555,0,7.85,1.223,9.93,3.342m-4.718,14.821A12.691,12.691,0,0,0,350,578.774c-3.567,0-5.758,1.452-5.758,4.129v.109c0,2.282,1.863,3.622,4.554,3.622,3.9,0,6.527-2.168,6.527-5.239Z" transform="translate(-185.848 -552.106)"/></svg>